<?xml version="1.0" encoding="UTF-8" standalone="no"?>
<svg
   xmlns:dc="http://purl.org/dc/elements/1.1/"
   xmlns:cc="http://creativecommons.org/ns#"
   xmlns:rdf="http://www.w3.org/1999/02/22-rdf-syntax-ns#"
   xmlns:svg="http://www.w3.org/2000/svg"
   xmlns="http://www.w3.org/2000/svg"
   xmlns:xlink="http://www.w3.org/1999/xlink"
   xmlns:sodipodi="http://sodipodi.sourceforge.net/DTD/sodipodi-0.dtd"
   xmlns:inkscape="http://www.inkscape.org/namespaces/inkscape"
   sodipodi:docname="breaking-bad-final-no-markings-bleed.svg"
   inkscape:version="1.0 (1.0+r73+1)"
   id="svg8"
   version="1.1"
   viewBox="0 0 297 210"
   height="210mm"
   width="297mm">
  <defs
     id="defs2">
    <linearGradient
       inkscape:collect="always"
       id="linearGradient3187">
      <stop
         style="stop-color:#0d3a0f;stop-opacity:1"
         offset="0"
         id="stop3183" />
      <stop
         style="stop-color:#030401;stop-opacity:1"
         offset="1"
         id="stop3185" />
    </linearGradient>
    <linearGradient
       id="linearGradient3152-8"
       inkscape:collect="always">
      <stop
         id="stop3148"
         offset="0"
         style="stop-color:#4aa173;stop-opacity:1" />
      <stop
         id="stop3150"
         offset="1"
         style="stop-color:#0a2406;stop-opacity:1" />
    </linearGradient>
    <rect
       id="rect1940"
       height="30.017223"
       width="38.730003"
       y="92.688004"
       x="104.59741" />
    <rect
       id="rect1934"
       height="26.224794"
       width="30.10236"
       y="80.317329"
       x="78.964645" />
    <rect
       x="104.59741"
       y="92.688004"
       width="38.730003"
       height="30.017223"
       id="rect1948" />
    <rect
       id="rect1948-6"
       height="30.017223"
       width="38.730003"
       y="92.688004"
       x="104.59741" />
    <rect
       id="rect1959"
       height="30.017223"
       width="38.730003"
       y="92.688004"
       x="104.59741" />
    <rect
       x="104.59741"
       y="92.688004"
       width="95.039711"
       height="34.151382"
       id="rect1948-6-8" />
    <rect
       x="104.59741"
       y="92.688004"
       width="38.730003"
       height="30.017223"
       id="rect1988" />
    <linearGradient
       gradientTransform="matrix(0.59521687,0,0,0.5738088,18.169864,3.9677911)"
       gradientUnits="userSpaceOnUse"
       y2="122.19639"
       x2="95.012138"
       y1="89.789322"
       x1="63.4706"
       id="linearGradient3154"
       xlink:href="#linearGradient3152-8"
       inkscape:collect="always" />
    <linearGradient
       gradientTransform="matrix(0.59598066,0,0,0.56972737,40.742614,26.384064)"
       y2="122.19639"
       x2="95.012138"
       y1="89.789322"
       x1="63.4706"
       gradientUnits="userSpaceOnUse"
       id="linearGradient3158"
       xlink:href="#linearGradient3152-8"
       inkscape:collect="always" />
    <linearGradient
       gradientTransform="matrix(1.5325673,0,0,2.6618511,-61.526591,-406.04963)"
       gradientUnits="userSpaceOnUse"
       y2="196.67691"
       x2="143.73045"
       y1="177.59244"
       x1="85.723213"
       id="linearGradient3176"
       xlink:href="#linearGradient3187"
       inkscape:collect="always" />
    <rect
       id="rect3197"
       height="32.074135"
       width="79.102875"
       y="92.688004"
       x="104.59741" />
    <rect
       x="104.59741"
       y="92.688004"
       width="49.961277"
       height="93.601295"
       id="rect3203" />
    <rect
       x="104.59741"
       y="92.688004"
       width="79.102875"
       height="32.074135"
       id="rect11703" />
    <rect
       id="rect11709"
       height="31.707121"
       width="89.218651"
       y="92.688004"
       x="104.59741" />
    <rect
       x="104.59741"
       y="92.688004"
       width="79.102875"
       height="32.074135"
       id="rect11731" />
    <rect
       id="rect11733"
       height="93.601295"
       width="49.961277"
       y="92.688004"
       x="104.59741" />
    <rect
       id="rect11735"
       height="32.074135"
       width="79.102875"
       y="92.688004"
       x="104.59741" />
    <rect
       x="104.59741"
       y="92.688004"
       width="135.54626"
       height="35.146641"
       id="rect11737" />
    <filter
       inkscape:collect="always"
       style="color-interpolation-filters:sRGB"
       id="filter1350"
       x="-0.00012566293"
       width="1.0002513"
       y="-0.00021942957"
       height="1.0004389">
      <feGaussianBlur
         inkscape:collect="always"
         stdDeviation="0.0078575601"
         id="feGaussianBlur1352" />
    </filter>
    <filter
       inkscape:collect="always"
       style="color-interpolation-filters:sRGB"
       id="filter4150"
       x="-0.0018117353"
       width="1.0036235"
       y="-0.0010124403"
       height="1.0020249">
      <feGaussianBlur
         inkscape:collect="always"
         stdDeviation="0.0031877003"
         id="feGaussianBlur4152" />
    </filter>
    <filter
       inkscape:collect="always"
       style="color-interpolation-filters:sRGB"
       id="filter4154"
       x="-0.0014174164"
       width="1.0028348"
       y="-0.0010124403"
       height="1.0020249">
      <feGaussianBlur
         inkscape:collect="always"
         stdDeviation="0.0031877003"
         id="feGaussianBlur4156" />
    </filter>
    <filter
       inkscape:collect="always"
       style="color-interpolation-filters:sRGB"
       id="filter4158"
       x="-0.0016028434"
       width="1.0032057"
       y="-0.00098485337"
       height="1.0019697">
      <feGaussianBlur
         inkscape:collect="always"
         stdDeviation="0.0031877003"
         id="feGaussianBlur4160" />
    </filter>
    <filter
       inkscape:collect="always"
       style="color-interpolation-filters:sRGB"
       id="filter4162"
       x="-0.0010969383"
       width="1.0021939"
       y="-0.00080768979"
       height="1.0016154">
      <feGaussianBlur
         inkscape:collect="always"
         stdDeviation="0.0031877003"
         id="feGaussianBlur4164" />
    </filter>
    <filter
       inkscape:collect="always"
       style="color-interpolation-filters:sRGB"
       id="filter4166"
       x="-0.0013386711"
       width="1.0026773"
       y="-0.00098485337"
       height="1.0019697">
      <feGaussianBlur
         inkscape:collect="always"
         stdDeviation="0.0031877003"
         id="feGaussianBlur4168" />
    </filter>
  </defs>
  <sodipodi:namedview
     inkscape:window-maximized="1"
     inkscape:window-y="28"
     inkscape:window-x="0"
     inkscape:window-height="1030"
     inkscape:window-width="1920"
     inkscape:guide-bbox="true"
     showguides="true"
     inkscape:snap-text-baseline="false"
     showgrid="true"
     inkscape:document-rotation="0"
     inkscape:current-layer="layer2"
     inkscape:document-units="in"
     inkscape:cy="238.94778"
     inkscape:cx="380.48572"
     inkscape:zoom="2.1445297"
     inkscape:pageshadow="2"
     inkscape:pageopacity="0"
     borderopacity="1.0"
     bordercolor="#666666"
     pagecolor="#000000"
     id="base">
    <inkscape:grid
       type="xygrid"
       id="grid1726"
       units="in"
       spacingx="3.175"
       spacingy="3.175"
       originx="-25.4"
       originy="-25.4"
       empspacing="8" />
  </sodipodi:namedview>
  <metadata
     id="metadata5">
    <rdf:RDF>
      <cc:Work
         rdf:about="">
        <dc:format>image/svg+xml</dc:format>
        <dc:type
           rdf:resource="http://purl.org/dc/dcmitype/StillImage" />
        <dc:title></dc:title>
      </cc:Work>
    </rdf:RDF>
  </metadata>
  <g
     style="opacity:1"
     id="layer1"
     inkscape:groupmode="layer"
     inkscape:label="Layer 1" />
  <g
     style="opacity:1;filter:url(#filter1350)"
     inkscape:label="Layer 2"
     id="layer2"
     inkscape:groupmode="layer">
    <path
       id="rect3168"
       style="opacity:1;fill:url(#linearGradient3176);fill-opacity:1;stroke:none;stroke-width:1.71922;stroke-miterlimit:4;stroke-dasharray:none;stroke-opacity:1"
       d="m 47.625,47.625 h 95.24999 v 57.15 H 47.625 Z" />
    <path
       transform="scale(0.26458333)"
       d="M 522.38672 330.69336 C 521.85641 330.69336 521.37504 330.82112 520.97656 331.0918 C 520.58515 331.35202 520.28792 331.72497 520.0918 332.17773 C 519.90142 332.62311 519.81055 333.12874 519.81055 333.68359 C 519.81055 334.253 519.89352 334.76235 520.06836 335.21094 L 520.06836 335.21875 C 520.24974 335.67151 520.53315 336.04607 520.91016 336.30469 C 521.29469 336.56847 521.76702 336.6875 522.29102 336.6875 C 522.55993 336.6875 522.79695 336.668 523.00781 336.62891 C 523.21807 336.59087 523.42287 336.53308 523.61914 336.45117 L 523.84766 336.35547 L 523.84766 335.01953 L 523.35352 335.18945 C 523.19633 335.24197 523.03315 335.28707 522.86719 335.32227 C 522.71563 335.35442 522.55609 335.36719 522.37891 335.36719 C 521.94505 335.36719 521.69656 335.24705 521.50195 334.98242 L 521.50195 334.97461 C 521.30118 334.68624 521.17578 334.2693 521.17578 333.69141 C 521.17578 333.10947 521.30585 332.69654 521.52344 332.41406 C 521.74091 332.1317 521.981 332.01562 522.37891 332.01562 C 522.54914 332.01562 522.70195 332.03935 522.83008 332.08203 C 522.98973 332.13403 523.12894 332.19069 523.25 332.25195 L 523.61133 332.43555 L 524.13672 331.20312 L 523.83398 331.04102 C 523.41181 330.80612 522.92209 330.69336 522.38672 330.69336 z M 521.39844 331.7207 L 521.4043 331.7207 C 521.39874 331.7245 521.39614 331.73052 521.39062 331.73438 C 521.39501 331.73141 521.39405 331.72364 521.39844 331.7207 z M 521.28711 335.60938 C 521.363 335.66865 521.45943 335.69074 521.54492 335.73633 C 521.48604 335.70769 521.39012 335.71162 521.33789 335.67578 C 521.31567 335.66055 521.30831 335.62569 521.28711 335.60938 z M 521.94336 337.78711 L 510.99609 344.81641 L 510.99609 358.81055 L 521.94336 365.8457 L 532.89844 358.81055 L 532.89844 358.61133 L 532.89844 345.2207 L 540 340.6582 L 540 339.76367 L 532.51562 344.57227 L 521.94336 337.78711 z M 521.94336 338.68164 L 532.13086 345.2207 L 532.13086 358.40625 L 521.94336 364.95312 L 511.75781 358.40625 L 511.75781 345.22852 L 521.94336 338.68164 z M 522.15039 340.19531 L 521.74414 340.83008 L 530.53711 346.48438 L 530.94336 345.84961 L 522.15039 340.19531 z M 512.77539 346.16602 L 512.77539 357.46875 L 513.5293 357.46875 L 513.5293 346.16602 L 512.77539 346.16602 z M 530.53711 357.15039 L 521.74414 362.80469 L 522.15039 363.43945 L 530.94336 357.78516 L 530.53711 357.15039 z M 535.50391 357.57227 C 535.17146 357.57227 534.85326 357.64023 534.57422 357.77148 C 534.30043 357.9029 534.07139 358.10177 533.91016 358.35352 C 533.7414 358.61267 533.6582 358.92507 533.6582 359.25391 C 533.6582 359.71166 533.78368 360.1255 534.05078 360.43555 C 534.30333 360.72255 534.64897 360.94283 535.07617 361.11523 L 535.08398 361.11523 C 535.34764 361.2191 535.54046 361.31686 535.66016 361.39453 L 535.66602 361.40234 L 535.67383 361.40234 C 535.79428 361.47461 535.85222 361.54284 535.87305 361.58008 C 535.89879 361.62597 535.91797 361.69827 535.91797 361.81641 C 535.91797 361.98096 535.88719 362.04766 535.79297 362.12695 L 535.78516 362.12695 C 535.70847 362.1931 535.54953 362.25977 535.26172 362.25977 C 535.0498 362.25977 534.84713 362.23092 534.64844 362.17773 C 534.43886 362.12061 534.27076 362.0615 534.14648 362 L 533.59961 361.72656 L 533.59961 363.18164 L 533.80664 363.28516 C 533.99494 363.3837 534.21295 363.45007 534.45703 363.49805 C 534.70266 363.54635 534.96064 363.57227 535.23828 363.57227 C 535.80215 363.57227 536.30247 363.42039 536.67773 363.09961 C 537.05761 362.77493 537.25391 362.29214 537.25391 361.75781 L 537.25391 361.55078 L 537.19531 361.51367 C 537.17041 361.3018 537.15288 361.08417 537.05469 360.9082 C 536.93011 360.67946 536.74111 360.48226 536.51562 360.33203 C 536.30454 360.18457 536.05462 360.05793 535.76953 359.94141 L 535.76367 359.93359 C 535.53297 359.83567 535.34805 359.74879 535.23047 359.67578 C 535.1246 359.60998 535.07201 359.55074 535.04688 359.50586 C 535.02227 359.46195 535.00195 359.38596 535.00195 359.26172 C 535.00195 359.12002 535.02989 359.06608 535.09766 359.00391 L 535.09766 358.99609 C 535.15314 358.94346 535.26437 358.89258 535.49023 358.89258 C 535.65835 358.89258 535.81383 358.91655 535.96289 358.95898 C 536.13176 359.00596 536.28397 359.06344 536.41992 359.12891 L 536.81055 359.31445 L 537.22461 358.04297 L 536.93555 357.9043 C 536.73686 357.80479 536.52031 357.72621 536.28711 357.66797 C 536.04291 357.60696 535.78234 357.57227 535.50391 357.57227 z M 506.52344 357.64453 L 506.52344 363.49805 L 507.85156 363.49805 L 507.85156 361.39453 L 508.16211 361.39453 L 509.26953 363.49805 L 510.8125 363.49805 L 509.42383 360.97461 C 509.47402 360.94205 509.53212 360.92342 509.58008 360.88672 C 509.76977 360.7393 509.92565 360.5424 510.03711 360.31836 C 510.16062 360.07005 510.20703 359.7896 510.20703 359.47656 C 510.20703 358.92372 510.04054 358.43094 509.67578 358.10938 C 509.67416 358.1079 509.66959 358.11084 509.66797 358.10938 C 509.30056 357.78141 508.78188 357.64453 508.16211 357.64453 L 506.52344 357.64453 z M 507.85938 358.95898 L 508.13281 358.95898 C 508.14052 358.95898 508.13889 358.95891 508.14648 358.95898 C 508.46094 358.96213 508.65333 359.03047 508.73047 359.0918 L 508.73828 359.0918 C 508.8014 359.14031 508.85547 359.23286 508.85547 359.49805 C 508.85547 359.74941 508.79935 359.87269 508.71484 359.95508 C 508.64171 360.02213 508.47547 360.0957 508.16211 360.0957 L 507.85938 360.0957 L 507.85938 358.95898 z "
       style="color:#000000;font-style:normal;font-variant:normal;font-weight:normal;font-stretch:normal;font-size:medium;line-height:normal;font-family:sans-serif;font-variant-ligatures:normal;font-variant-position:normal;font-variant-caps:normal;font-variant-numeric:normal;font-variant-alternates:normal;font-variant-east-asian:normal;font-feature-settings:normal;font-variation-settings:normal;text-indent:0;text-align:start;text-decoration:none;text-decoration-line:none;text-decoration-style:solid;text-decoration-color:#000000;letter-spacing:normal;word-spacing:normal;text-transform:none;writing-mode:lr-tb;direction:ltr;text-orientation:mixed;dominant-baseline:auto;baseline-shift:baseline;text-anchor:start;white-space:normal;shape-padding:0;shape-margin:0;inline-size:0;clip-rule:nonzero;display:inline;overflow:visible;visibility:visible;opacity:0.157165;isolation:auto;mix-blend-mode:normal;color-interpolation:sRGB;color-interpolation-filters:linearRGB;solid-color:#000000;solid-opacity:1;vector-effect:none;fill:#ffffff;fill-opacity:1;fill-rule:nonzero;stroke:none;stroke-width:0.755906;stroke-linecap:butt;stroke-linejoin:miter;stroke-miterlimit:4;stroke-dasharray:none;stroke-dashoffset:0;stroke-opacity:1;color-rendering:auto;image-rendering:auto;shape-rendering:auto;text-rendering:auto;enable-background:accumulate;stop-color:#000000;stop-opacity:1"
       id="path428" />
    <path
       id="path1419"
       style="opacity:0.157165;fill:none;stroke:#ffffff;stroke-width:0.2;stroke-miterlimit:4;stroke-dasharray:none;stroke-opacity:1"
       d="m 100.30241,74.345404 2.32684,1.495524 m 0,2.991048 -2.32684,1.495524 m -2.326836,-1.495524 v -2.991048 m 5.120636,3.29249 v -3.593937 l 2.79687,-1.79696 2.79687,1.79696 v 3.593937 m -0.003,0 v -3.593937 l 2.79686,-1.79696 2.79688,1.79696 m -11.18134,3.593937 -2.79686,1.796965 -2.796876,-1.796965 v -3.593937 l 2.796876,-1.79696 2.79686,1.79696 z m 1.15236,0.833101 q 0,0.179428 -0.1171,0.279532 -0.11712,0.100103 -0.31568,0.100103 -0.10185,0 -0.1884,-0.01702 -0.0866,-0.01702 -0.14427,-0.0472 v -0.162433 q 0.0611,0.03024 0.15106,0.05476 0.0917,0.02452 0.18839,0.02452 0.13578,0 0.20366,-0.05857 0.0696,-0.05857 0.0696,-0.158649 0,-0.0661 -0.0254,-0.111436 -0.0254,-0.04535 -0.0883,-0.0831 -0.0611,-0.03964 -0.17142,-0.0831 -0.15445,-0.06233 -0.23421,-0.152989 -0.0781,-0.09065 -0.0781,-0.24742 0,-0.107651 0.0492,-0.183207 0.0492,-0.07743 0.13577,-0.118984 0.0883,-0.04154 0.20197,-0.04154 0.10014,0 0.1833,0.02078 0.0832,0.02078 0.15105,0.05476 l -0.0475,0.145428 q -0.0628,-0.03024 -0.13748,-0.05101 -0.073,-0.02078 -0.15274,-0.02078 -0.11372,0 -0.17142,0.05476 -0.0577,0.05286 -0.0577,0.141656 0,0.068 0.0254,0.113324 0.0254,0.04535 0.0832,0.08121 0.0578,0.0359 0.15615,0.07744 0.10692,0.04345 0.17991,0.09444 0.0746,0.0491 0.11201,0.11899 0.039,0.06989 0.039,0.175649 z m 7.5406,-8.371237 h -0.67719 v -1.348548 h 0.67719 v 0.149209 h -0.52444 v 0.421187 h 0.4939 v 0.147317 h -0.4939 v 0.481619 h 0.52444 z m 0.10024,1.258728 q 0,0.179428 -0.11711,0.279532 -0.11711,0.100103 -0.31569,0.100103 -0.10183,0 -0.18839,-0.01696 -0.0865,-0.01702 -0.14427,-0.0472 v -0.162423 q 0.0611,0.03024 0.15106,0.05476 0.0917,0.02452 0.18839,0.02452 0.13578,0 0.20367,-0.05857 0.0696,-0.05857 0.0696,-0.158649 0,-0.0661 -0.0254,-0.111436 -0.0254,-0.04535 -0.0882,-0.0831 -0.0611,-0.03964 -0.17143,-0.0831 -0.15444,-0.06233 -0.23421,-0.152988 -0.0781,-0.09066 -0.0781,-0.24742 0,-0.107656 0.0492,-0.183208 0.0492,-0.07744 0.13577,-0.118989 0.0883,-0.04154 0.20198,-0.04154 0.10014,0 0.1833,0.02078 0.0832,0.02078 0.15105,0.05476 l -0.0475,0.145429 q -0.0628,-0.03024 -0.13748,-0.05101 -0.073,-0.02078 -0.15275,-0.02078 -0.11371,0 -0.17142,0.05476 -0.0578,0.05291 -0.0578,0.141649 0,0.068 0.0255,0.113324 0.0254,0.04535 0.0832,0.08122 0.0577,0.0359 0.15616,0.07744 0.10692,0.04345 0.1799,0.09443 0.0746,0.0491 0.11202,0.11899 0.039,0.06989 0.039,0.175655 z m -15.237136,6.12471 q 0.225736,0 0.332656,0.09632 0.108624,0.09444 0.108624,0.287086 0,0.107657 -0.03568,0.179428 -0.03568,0.07177 -0.09165,0.115216 -0.05432,0.04154 -0.115408,0.0661 l 0.332656,0.604394 h -0.178208 l -0.293624,-0.55717 h -0.241 v 0.55717 h -0.15276 v -1.348547 z m -0.0085,0.147323 h -0.17312 v 0.500512 h 0.181608 q 0.147656,0 0.215552,-0.06422 0.06792,-0.0661 0.06792,-0.192648 0,-0.132216 -0.07128,-0.186988 -0.07128,-0.05666 -0.22064,-0.05666 z m 9.831336,-6.585563 q 0,0.247425 -0.09,0.421187 -0.0883,0.173762 -0.26307,0.239866 l 0.29022,0.336197 h -0.21894 l -0.23421,-0.304085 q -0.0102,0 -0.022,0 -0.0102,0.0018 -0.0204,0.0018 -0.18839,0 -0.31399,-0.08688 -0.12389,-0.08688 -0.185,-0.243646 -0.0611,-0.156763 -0.0611,-0.36641 0,-0.207754 0.0611,-0.362636 0.0611,-0.154875 0.185,-0.241752 0.1256,-0.08688 0.31568,-0.08688 0.1816,0 0.30551,0.08688 0.12389,0.08499 0.18669,0.241752 0.0645,0.154882 0.0645,0.364523 z m -0.95724,0 q 0,0.254979 0.0967,0.402301 0.0968,0.145429 0.30211,0.145429 0.20706,0 0.3021,-0.145429 0.0951,-0.147322 0.0951,-0.402301 0,-0.254973 -0.0951,-0.398515 -0.095,-0.14543 -0.3004,-0.14543 -0.20537,0 -0.30381,0.14543 -0.0967,0.143542 -0.0967,0.398515 z m -5.10379,-0.543945 q -0.19518,0 -0.3072,0.14543 -0.11201,0.145428 -0.11201,0.398515 0,0.251205 0.10352,0.398521 0.10523,0.145436 0.31399,0.145436 0.0798,0 0.15106,-0.01512 0.0713,-0.01512 0.13917,-0.03779 v 0.147321 q -0.0679,0.02834 -0.14087,0.04154 -0.0713,0.01322 -0.17142,0.01322 -0.185,0 -0.3089,-0.08499 -0.123894,-0.085 -0.186694,-0.241754 -0.06112,-0.156768 -0.06112,-0.368302 0,-0.203981 0.06616,-0.358863 0.06792,-0.156755 0.198564,-0.243639 0.13069,-0.08877 0.31739,-0.08877 0.19179,0 0.33435,0.07933 l -0.0611,0.143543 q -0.056,-0.02834 -0.12559,-0.05101 -0.0679,-0.02268 -0.14936,-0.02268 z" />
    <path
       d="m 75.104903,74.345404 2.326846,1.495524 m 0,2.991048 -2.326846,1.495524 m -2.32684,-1.495524 v -2.991048 m 5.120639,3.29249 v -3.593937 l 2.796873,-1.79696 2.796864,1.79696 v 3.593937 m -0.0032,0 v -3.593937 l 2.796864,-1.79696 2.796871,1.79696 m -11.181329,3.593937 -2.796871,1.796965 -2.796872,-1.796965 v -3.593937 l 2.796872,-1.79696 2.796871,1.79696 z m 1.152358,0.833101 q 0,0.179428 -0.11711,0.279532 -0.117108,0.100103 -0.315679,0.100103 -0.101841,0 -0.188397,-0.01702 -0.08656,-0.01702 -0.144264,-0.0472 v -0.162433 q 0.0611,0.03024 0.151055,0.05476 0.09165,0.02452 0.188392,0.02452 0.135775,0 0.203665,-0.05857 0.06958,-0.05857 0.06958,-0.158649 0,-0.0661 -0.02547,-0.111436 -0.02547,-0.04535 -0.08826,-0.0831 -0.0611,-0.03964 -0.171417,-0.0831 -0.154446,-0.06233 -0.234217,-0.152989 -0.07807,-0.09065 -0.07807,-0.24742 0,-0.107651 0.04922,-0.183207 0.04922,-0.07743 0.135775,-0.118984 0.08826,-0.04154 0.201975,-0.04154 0.100133,0 0.183297,0.02078 0.08316,0.02078 0.151054,0.05476 l -0.0475,0.145428 q -0.0628,-0.03024 -0.137477,-0.05101 -0.07298,-0.02078 -0.152751,-0.02078 -0.113716,0 -0.171417,0.05476 -0.05767,0.05286 -0.05767,0.141656 0,0.068 0.02547,0.113324 0.02547,0.04535 0.08316,0.08121 0.05774,0.0359 0.156143,0.07744 0.106925,0.04345 0.179905,0.09444 0.07468,0.0491 0.11202,0.11899 0.03905,0.06989 0.03905,0.175649 z m 7.540588,-8.371237 h -0.6772 v -1.348548 h 0.6772 v 0.149209 h -0.524448 v 0.421187 h 0.493888 v 0.147317 h -0.493888 v 0.481619 h 0.524448 z m 0.100224,1.258728 q 0,0.179428 -0.117112,0.279532 -0.117096,0.100103 -0.31568,0.100103 -0.101832,0 -0.188392,-0.01696 -0.08655,-0.01702 -0.144256,-0.0472 v -0.162423 q 0.06112,0.03024 0.151048,0.05476 0.09165,0.02452 0.188392,0.02452 0.135776,0 0.203664,-0.05857 0.0696,-0.05857 0.0696,-0.158649 0,-0.0661 -0.02544,-0.111436 -0.02544,-0.04535 -0.08826,-0.0831 -0.06112,-0.03964 -0.171416,-0.0831 -0.154448,-0.06233 -0.234216,-0.152988 -0.07808,-0.09066 -0.07808,-0.24742 0,-0.107656 0.0492,-0.183208 0.0492,-0.07744 0.135776,-0.118989 0.08825,-0.04154 0.201968,-0.04154 0.100128,0 0.183304,0.02078 0.08315,0.02078 0.151048,0.05476 l -0.04752,0.145429 q -0.0628,-0.03024 -0.137472,-0.05101 -0.07296,-0.02078 -0.152744,-0.02078 -0.11372,0 -0.171424,0.05476 -0.05776,0.05291 -0.05776,0.141649 0,0.068 0.02544,0.113324 0.02552,0.04535 0.08317,0.08122 0.05776,0.0359 0.156144,0.07744 0.106928,0.04345 0.179904,0.09443 0.07472,0.0491 0.112024,0.11899 0.03904,0.06989 0.03904,0.175655 z m -15.237302,6.12471 q 0.225729,0 0.332654,0.09632 0.108623,0.09444 0.108623,0.287086 0,0.107657 -0.03564,0.179428 -0.03564,0.07177 -0.09165,0.115216 -0.05431,0.04154 -0.115412,0.0661 l 0.332657,0.604394 h -0.178211 l -0.29362,-0.55717 h -0.241002 v 0.55717 h -0.152755 v -1.348547 z m -0.0085,0.147323 h -0.173119 v 0.500512 h 0.181602 q 0.147661,0 0.215548,-0.06422 0.06789,-0.0661 0.06789,-0.192648 0,-0.132216 -0.07128,-0.186988 -0.07128,-0.05666 -0.220637,-0.05666 z m 9.831366,-6.585563 q 0,0.247425 -0.08995,0.421187 -0.08826,0.173762 -0.263072,0.239866 l 0.290224,0.336197 h -0.218936 l -0.234224,-0.304085 q -0.01016,0 -0.022,0 -0.01016,0.0018 -0.0204,0.0018 -0.188392,0 -0.313984,-0.08688 -0.123896,-0.08688 -0.185,-0.243646 -0.06112,-0.156763 -0.06112,-0.36641 0,-0.207754 0.06112,-0.362636 0.06112,-0.154875 0.185,-0.241752 0.125592,-0.08688 0.31568,-0.08688 0.1816,0 0.305504,0.08688 0.123896,0.08499 0.186696,0.241752 0.06448,0.154882 0.06448,0.364523 z m -0.957232,0 q 0,0.254979 0.09674,0.402301 0.09674,0.145429 0.302112,0.145429 0.207056,0 0.302104,-0.145429 0.09504,-0.147322 0.09504,-0.402301 0,-0.254973 -0.09504,-0.398515 -0.09505,-0.14543 -0.300416,-0.14543 -0.20536,0 -0.3038,0.14543 -0.09674,0.143542 -0.09674,0.398515 z m -5.103796,-0.543945 q -0.195183,0 -0.307197,0.14543 -0.11202,0.145428 -0.11202,0.398515 0,0.251205 0.103532,0.398521 0.105228,0.145436 0.313983,0.145436 0.07977,0 0.15106,-0.01512 0.07128,-0.01512 0.139168,-0.03779 v 0.147321 q -0.06789,0.02834 -0.14087,0.04154 -0.07128,0.01322 -0.171417,0.01322 -0.184999,0 -0.308893,-0.08499 -0.123901,-0.085 -0.186696,-0.241754 -0.0611,-0.156768 -0.0611,-0.368302 0,-0.203981 0.06619,-0.358863 0.06789,-0.156755 0.198577,-0.243639 0.130685,-0.08877 0.317381,-0.08877 0.191785,0 0.334351,0.07933 l -0.0611,0.143543 q -0.05601,-0.02834 -0.125591,-0.05101 -0.0679,-0.02268 -0.149357,-0.02268 z"
       style="opacity:0.157165;fill:none;stroke:#ffffff;stroke-width:0.2;stroke-miterlimit:4;stroke-dasharray:none;stroke-opacity:1"
       id="path1451" />
    <g
       aria-label="C"
       transform="matrix(0.16036802,0,0,0.17846223,66.695165,53.37841)"
       id="g1519"
       style="font-style:normal;font-weight:normal;font-size:10.5833px;line-height:1.25;font-family:sans-serif;opacity:0.060632;fill:none;fill-opacity:1;stroke:#ffffff;stroke-width:0.712194;stroke-opacity:1;filter:url(#filter4166)" />
    <g
       aria-label="Q"
       transform="matrix(0.16036802,0,0,0.17846223,71.700465,51.777807)"
       id="g1521"
       style="font-style:normal;font-weight:normal;font-size:10.5833px;line-height:1.25;font-family:sans-serif;opacity:0.060632;fill:none;fill-opacity:1;stroke:#ffffff;stroke-width:0.712194;stroke-opacity:1;filter:url(#filter4162)" />
    <g
       aria-label="R"
       transform="matrix(0.16036802,0,0,0.17846223,60.959162,56.864539)"
       id="g1523"
       style="font-style:normal;font-weight:normal;font-size:10.5833px;line-height:1.25;font-family:sans-serif;opacity:0.060632;fill:none;fill-opacity:1;stroke:#ffffff;stroke-width:0.712194;stroke-opacity:1;filter:url(#filter4154)" />
    <g
       aria-label="S"
       transform="matrix(0.16036802,0,0,0.17846223,73.23003,51.519769)"
       id="g1525"
       style="font-style:normal;font-weight:normal;font-size:10.5833px;line-height:1.25;font-family:sans-serif;opacity:0.060632;fill:none;fill-opacity:1;stroke:#ffffff;stroke-width:0.712194;stroke-opacity:1;filter:url(#filter4158)" />
    <g
       aria-label="S"
       transform="matrix(0.16036802,0,0,0.17846223,65.589194,58.632285)"
       id="g1529"
       style="font-style:normal;font-weight:normal;font-size:10.5833px;line-height:1.25;font-family:sans-serif;opacity:0.060632;fill:none;fill-opacity:1;stroke:#ffffff;stroke-width:0.712194;stroke-opacity:1;filter:url(#filter4158)" />
    <path
       id="path1531"
       style="opacity:0.157165;fill:none;stroke:#ffffff;stroke-width:0.2;stroke-miterlimit:4;stroke-dasharray:none;stroke-opacity:1"
       d="m 87.703655,90.093854 2.326839,1.495529 m 0,2.991048 -2.326839,1.49552 m -2.32684,-1.49552 v -2.991048 m 5.120639,3.292488 v -3.593944 l 2.796864,-1.796956 2.79688,1.796956 v 3.593944 m -0.0032,0 v -3.593944 l 2.796872,-1.796956 2.79687,1.796956 m -11.181342,3.593944 -2.796871,1.796968 -2.796864,-1.796968 v -3.593944 l 2.796864,-1.796956 2.796871,1.796956 z m 1.15236,0.833096 q 0,0.179432 -0.117112,0.279536 -0.117104,0.100104 -0.31568,0.100104 -0.101832,0 -0.188392,-0.01704 -0.08656,-0.01704 -0.144264,-0.0472 v -0.162432 q 0.06112,0.03024 0.151056,0.05472 0.09165,0.02448 0.188392,0.02448 0.135768,0 0.203672,-0.05856 0.0696,-0.05856 0.0696,-0.158648 0,-0.06608 -0.02544,-0.111432 -0.02552,-0.04536 -0.08826,-0.0831 -0.06112,-0.03968 -0.171416,-0.0831 -0.154448,-0.06232 -0.234216,-0.152992 -0.07808,-0.09065 -0.07808,-0.247416 0,-0.107656 0.0492,-0.183208 0.0492,-0.07744 0.135768,-0.118984 0.08826,-0.04152 0.201976,-0.04152 0.100128,0 0.183296,0.0208 0.08316,0.0208 0.151048,0.05472 l -0.04752,0.145424 q -0.0628,-0.03024 -0.13748,-0.05104 -0.07296,-0.0208 -0.152744,-0.0208 -0.113712,0 -0.171416,0.05472 -0.05768,0.05288 -0.05768,0.141656 0,0.068 0.02544,0.113328 0.02552,0.04536 0.08317,0.08121 0.05776,0.03592 0.156144,0.07744 0.10692,0.04344 0.179904,0.09444 0.07472,0.04912 0.112016,0.118984 0.03904,0.06992 0.03904,0.175648 z m 7.540608,-8.371235 h -0.6772 v -1.348547 h 0.6772 v 0.149209 h -0.524448 v 0.421187 h 0.493896 v 0.147317 h -0.493896 v 0.481619 h 0.524448 z m 0.100224,1.258729 q 0,0.179428 -0.117104,0.279532 -0.117112,0.100103 -0.315688,0.100103 -0.101832,0 -0.188392,-0.01696 -0.08656,-0.01702 -0.144264,-0.0472 v -0.162423 q 0.06112,0.03024 0.151056,0.05476 0.09165,0.02452 0.188392,0.02452 0.135776,0 0.203664,-0.05857 0.0696,-0.05857 0.0696,-0.158649 0,-0.0661 -0.02544,-0.111437 -0.02544,-0.04535 -0.08826,-0.0831 -0.06112,-0.03964 -0.171416,-0.0831 -0.154448,-0.06233 -0.234216,-0.152988 -0.07808,-0.09066 -0.07808,-0.24742 0,-0.107657 0.0492,-0.183208 0.0492,-0.07744 0.135776,-0.11899 0.08826,-0.04154 0.201976,-0.04154 0.100128,0 0.183296,0.02078 0.08316,0.02078 0.151056,0.05476 l -0.04752,0.145429 q -0.0628,-0.03024 -0.137472,-0.05101 -0.07296,-0.02078 -0.152752,-0.02078 -0.113712,0 -0.171416,0.05476 -0.05768,0.05286 -0.05768,0.14165 0,0.068 0.02544,0.113324 0.02544,0.04535 0.08317,0.08122 0.05768,0.03589 0.156144,0.07744 0.10692,0.04345 0.179904,0.09443 0.07472,0.0491 0.112016,0.118991 0.03904,0.06988 0.03904,0.175654 z m -15.237327,6.124714 q 0.225736,0 0.332656,0.09632 0.108624,0.09444 0.108624,0.287088 0,0.107656 -0.03568,0.179424 -0.03568,0.07176 -0.09164,0.115216 -0.05432,0.04152 -0.115416,0.06608 l 0.332664,0.6044 h -0.178216 l -0.293624,-0.557176 h -0.241 v 0.557176 h -0.152752 v -1.348552 z m -0.0085,0.14732 h -0.17312 v 0.500512 h 0.181608 q 0.147648,0 0.215544,-0.06424 0.06792,-0.06608 0.06792,-0.192648 0,-0.132216 -0.07128,-0.186984 -0.07128,-0.05664 -0.22064,-0.05664 z m 9.831143,-6.585565 q 0,0.247426 -0.08996,0.421187 -0.08826,0.173763 -0.263064,0.239867 l 0.290216,0.336197 h -0.218944 l -0.234208,-0.304085 q -0.01016,0 -0.022,0 -0.01016,0.0018 -0.02032,0.0018 -0.188392,0 -0.313976,-0.08688 -0.123904,-0.08688 -0.185,-0.243647 -0.06112,-0.156762 -0.06112,-0.366409 0,-0.207754 0.06112,-0.362636 0.06112,-0.154875 0.185,-0.241753 0.125584,-0.08688 0.315672,-0.08688 0.181608,0 0.305504,0.08688 0.123896,0.08499 0.186696,0.241753 0.06448,0.154882 0.06448,0.364523 z m -0.95724,0 q 0,0.254979 0.09674,0.402302 0.09674,0.145429 0.302104,0.145429 0.207064,0 0.302104,-0.145429 0.09505,-0.147323 0.09505,-0.402302 0,-0.254972 -0.09505,-0.398515 -0.09504,-0.145429 -0.300408,-0.145429 -0.20536,0 -0.3038,0.145429 -0.09674,0.143543 -0.09674,0.398515 z m -5.103799,-0.543944 q -0.195176,0 -0.307192,0.145429 -0.112016,0.145429 -0.112016,0.398515 0,0.251206 0.103528,0.398522 0.105224,0.145435 0.313984,0.145435 0.07976,0 0.151056,-0.01512 0.07128,-0.01512 0.139168,-0.03779 v 0.147322 q -0.06792,0.02834 -0.140864,0.04154 -0.07128,0.01322 -0.171424,0.01322 -0.185,0 -0.308896,-0.08499 -0.123896,-0.085 -0.186696,-0.241753 -0.06112,-0.156768 -0.06112,-0.368303 0,-0.20398 0.06616,-0.358862 0.06792,-0.156756 0.198576,-0.24364 0.13068,-0.08877 0.317376,-0.08877 0.191792,0 0.334352,0.07932 l -0.06112,0.143543 q -0.056,-0.02834 -0.1256,-0.05101 -0.06792,-0.02268 -0.14936,-0.02268 z" />
    <path
       transform="scale(0.26458333)"
       d="M 229.11133 265.12109 L 229.11133 270.97461 L 232.42578 270.97461 L 232.42578 270.59766 L 232.42578 269.65234 L 230.44727 269.65234 L 230.44727 268.58984 L 232.31641 268.58984 L 232.31641 267.27539 L 230.44727 267.27539 L 230.44727 266.44141 L 232.42578 266.44141 L 232.42578 265.12109 L 229.11133 265.12109 z M 189.06445 271.17383 C 188.53413 271.17383 188.05278 271.30159 187.6543 271.57227 C 187.26286 271.8325 186.96562 272.20544 186.76953 272.6582 C 186.57919 273.10359 186.48828 273.60922 186.48828 274.16406 C 186.48828 274.73345 186.56539 275.24281 186.74023 275.69141 L 186.74609 275.69141 C 186.92746 276.14414 187.21089 276.51871 187.58789 276.77734 C 187.97243 277.04113 188.44473 277.16797 188.96875 277.16797 C 189.2377 277.16797 189.47474 277.14847 189.68555 277.10938 C 189.89585 277.07134 190.09477 277.01356 190.29102 276.93164 L 190.52734 276.83594 L 190.52734 275.5 L 190.03125 275.66992 C 189.87394 275.72245 189.71084 275.75973 189.54492 275.79492 C 189.39328 275.82709 189.2279 275.8457 189.05078 275.8457 C 188.61256 275.8457 188.36744 275.72537 188.17188 275.45508 C 187.96912 275.16658 187.85352 274.75096 187.85352 274.16992 C 187.85352 273.58798 187.97578 273.17699 188.19336 272.89453 C 188.41084 272.61217 188.65871 272.48828 189.05664 272.48828 C 189.22681 272.48828 189.37199 272.51193 189.5 272.55469 L 189.50781 272.55469 C 189.66743 272.60669 189.80664 272.6692 189.92773 272.73047 L 190.29102 272.9082 L 190.80664 271.68359 L 190.51172 271.52148 C 190.08957 271.28658 189.5998 271.17383 189.06445 271.17383 z M 209.85938 271.17383 C 209.32283 271.17383 208.84685 271.29479 208.45703 271.56445 L 208.44922 271.56445 C 208.07456 271.8272 207.79238 272.2015 207.61523 272.65039 C 207.44005 273.09432 207.35742 273.60352 207.35742 274.16406 C 207.35742 274.72904 207.44051 275.23547 207.61523 275.68359 C 207.79201 276.13712 208.07346 276.51385 208.44922 276.77734 L 208.45703 276.77734 C 208.83994 277.04223 209.30754 277.16397 209.83008 277.16797 L 210.7168 278.32031 L 212.55469 278.32031 L 211.13672 276.67969 C 211.44797 276.46852 211.78416 276.28743 211.96289 275.93555 C 212.21298 275.45244 212.32322 274.88124 212.33203 274.24414 L 212.33398 274.24219 L 212.34766 274.20703 L 212.34766 274.16992 C 212.34766 273.6056 212.25815 273.09501 212.07422 272.65039 L 212.07422 272.64258 C 211.89274 272.19242 211.60782 271.82197 211.23242 271.56445 C 210.84916 271.29571 210.37722 271.17383 209.85938 271.17383 z M 231.06055 271.17383 C 230.72799 271.17383 230.40982 271.23393 230.13086 271.36523 C 229.85853 271.49593 229.6279 271.69939 229.4668 271.94922 C 229.29803 272.20838 229.21484 272.52078 229.21484 272.84961 C 229.21484 273.30735 229.33844 273.7212 229.60547 274.03125 C 229.85799 274.31825 230.20562 274.53659 230.63281 274.70898 L 230.64062 274.70898 C 230.90422 274.81285 231.09502 274.91252 231.21484 274.99023 L 231.22266 274.99805 L 231.23047 274.99805 C 231.35079 275.07035 231.40864 275.1363 231.42969 275.17383 C 231.45543 275.2197 231.47461 275.29209 231.47461 275.41016 C 231.47461 275.57471 231.44188 275.64141 231.34766 275.7207 L 231.3418 275.7207 C 231.2651 275.78687 231.10418 275.85352 230.81641 275.85352 C 230.60458 275.85352 230.40393 275.82664 230.20508 275.77344 C 229.99557 275.71631 229.82748 275.65723 229.70312 275.5957 L 229.15625 275.32227 L 229.15625 276.77734 L 229.36328 276.88086 C 229.55159 276.97935 229.76774 277.04577 230.01172 277.09375 C 230.25727 277.14186 230.51735 277.16797 230.79492 277.16797 C 231.3588 277.16797 231.85912 277.01612 232.23438 276.69531 C 232.61424 276.37062 232.81055 275.88589 232.81055 275.35156 L 232.81055 275.10156 L 232.74414 275.07227 C 232.71698 274.87491 232.70367 274.66923 232.61133 274.50391 C 232.48528 274.2718 232.29436 274.07881 232.06445 273.92773 C 231.85358 273.78111 231.61053 273.65113 231.32617 273.53516 C 231.0898 273.43535 230.90644 273.3437 230.78711 273.26953 C 230.68127 273.20368 230.62905 273.14499 230.60352 273.09961 C 230.5789 273.05576 230.55859 272.98163 230.55859 272.85742 C 230.55859 272.71583 230.58636 272.65988 230.6543 272.59766 L 230.6543 272.5918 C 230.70977 272.53916 230.81905 272.48828 231.04492 272.48828 C 231.21314 272.48828 231.36865 272.51227 231.51758 272.55469 C 231.68646 272.60166 231.84061 272.65914 231.97656 272.72461 L 232.36719 272.9082 L 232.78125 271.63867 L 232.49219 271.49805 C 232.29346 271.3986 232.0768 271.31996 231.84375 271.26172 C 231.59957 271.20072 231.33898 271.17383 231.06055 271.17383 z M 209.00391 272.15625 C 208.95587 272.18476 208.90009 272.19528 208.85547 272.22852 C 208.86926 272.21814 208.87055 272.19552 208.88477 272.18555 C 208.91412 272.16524 208.97243 272.17434 209.00391 272.15625 z M 210.72266 272.16211 C 210.74251 272.17451 210.77777 272.17215 210.79688 272.18555 L 210.80469 272.18555 C 210.81442 272.19223 210.81662 272.20795 210.82617 272.21484 C 210.79461 272.19212 210.75595 272.18249 210.72266 272.16211 z M 209.85938 272.48828 C 210.28761 272.48828 210.50839 272.609 210.67969 272.87109 C 210.86229 273.14688 210.98242 273.57443 210.98242 274.16992 C 210.98242 274.76543 210.86531 275.19664 210.67969 275.48438 C 210.50895 275.7456 210.28479 275.86133 209.85156 275.86133 C 209.42791 275.86133 209.2078 275.74217 209.0332 275.48438 L 209.0332 275.47656 C 208.84615 275.189 208.72266 274.76143 208.72266 274.16992 C 208.72266 273.57527 208.8396 273.14677 209.02539 272.87109 C 209.20504 272.60569 209.43115 272.48828 209.85938 272.48828 z M 187.96484 276.08984 C 188.04045 276.14869 188.13758 276.16368 188.22266 276.20898 C 188.16425 276.18049 188.06946 276.19184 188.01758 276.15625 C 187.99537 276.14101 187.98607 276.10617 187.96484 276.08984 z M 208.86328 276.12695 C 208.89467 276.15015 208.93368 276.15688 208.9668 276.17773 C 208.94533 276.16464 208.90526 276.17043 208.88477 276.15625 C 208.87493 276.14936 208.87292 276.13405 208.86328 276.12695 z M 210.52344 276.28125 C 210.50991 276.28676 210.508 276.3053 210.49414 276.31055 L 210.38477 276.35547 C 210.43712 276.3382 210.47368 276.30304 210.52344 276.28125 z M 188.62109 278.25977 L 180 283.80078 L 180 284.70312 L 188.62109 279.16016 L 198.80859 285.70117 L 198.80859 298.88477 L 188.62109 305.42578 L 180 299.88477 L 180 300.78516 L 188.62109 306.32617 L 199.57617 299.29102 L 199.57617 299.08398 L 199.57617 285.70117 L 209.75586 279.16016 L 219.93555 285.70117 L 219.93555 299.08398 L 219.95117 299.08398 L 220.68945 299.08398 L 220.70312 299.08398 L 220.70312 285.70117 L 230.88281 279.16016 L 241.25586 285.82031 L 241.66016 285.18359 L 230.88281 278.25977 L 220.32031 285.05078 L 209.75586 278.25977 L 199.19336 285.05078 L 188.62109 278.25977 z M 188.82812 280.67383 L 188.42188 281.30859 L 197.21484 286.96289 L 197.62109 286.32227 L 188.82812 280.67383 z M 180 286.64648 L 180 297.94727 L 180.20703 297.94727 L 180.20703 286.64648 L 180 286.64648 z M 197.21484 297.63086 L 188.42188 303.28516 L 188.82812 303.91992 L 197.62109 298.26562 L 197.21484 297.63086 z M 202.17578 298.05078 C 201.84323 298.05078 201.53093 298.11089 201.25195 298.24219 L 201.25195 298.25 C 200.97822 298.38142 200.74916 298.58232 200.58789 298.83398 C 200.41906 299.09315 200.33789 299.39771 200.33789 299.72656 C 200.33789 300.18431 200.45369 300.59816 200.7207 300.9082 L 200.72852 300.91602 C 200.98105 301.20301 201.32672 301.42135 201.75391 301.59375 C 202.01755 301.69762 202.21816 301.79732 202.33789 301.875 L 202.3457 301.875 L 202.35156 301.88281 C 202.47184 301.95512 202.52375 302.0209 202.54492 302.05859 C 202.57068 302.10444 202.5957 302.17691 202.5957 302.29492 C 202.5957 302.4595 202.56489 302.52619 202.4707 302.60547 L 202.46289 302.60547 C 202.38619 302.67164 202.22722 302.73828 201.93945 302.73828 C 201.72762 302.73828 201.52503 302.7114 201.32617 302.6582 C 201.1166 302.60108 200.94848 302.53416 200.82422 302.47266 L 200.27734 302.20703 L 200.27734 303.6543 L 200.48438 303.76562 C 200.67269 303.86412 200.88295 303.93054 201.12695 303.97852 C 201.37258 304.02682 201.63835 304.04493 201.91602 304.04492 C 202.47986 304.04492 202.98019 303.90086 203.35547 303.58008 C 203.7021 303.28378 203.88873 302.85192 203.91992 302.37305 L 203.93164 302.35547 L 203.93164 302.23633 C 203.93164 301.92333 203.87041 301.63564 203.73242 301.38867 C 203.60797 301.15968 203.41908 300.96274 203.19336 300.8125 C 202.98138 300.6644 202.73582 300.53096 202.44922 300.41406 C 202.21281 300.31426 202.02939 300.22258 201.91016 300.14844 C 201.80428 300.08263 201.74995 300.02364 201.72461 299.97852 C 201.69998 299.93469 201.67969 299.85852 201.67969 299.73438 C 201.67969 299.59246 201.70974 299.54438 201.77734 299.48242 L 201.77734 299.47656 C 201.83281 299.42393 201.94211 299.37305 202.16797 299.37305 C 202.33615 299.37305 202.49162 299.39703 202.64062 299.43945 C 202.80952 299.48643 202.96171 299.54391 203.09766 299.60938 L 203.48828 299.79297 L 203.90234 298.52344 L 203.61523 298.37695 C 203.41651 298.27749 203.19792 298.19887 202.96484 298.14062 C 202.72069 298.07962 202.45423 298.05078 202.17578 298.05078 z "
       style="color:#000000;font-style:normal;font-variant:normal;font-weight:normal;font-stretch:normal;font-size:medium;line-height:normal;font-family:sans-serif;font-variant-ligatures:normal;font-variant-position:normal;font-variant-caps:normal;font-variant-numeric:normal;font-variant-alternates:normal;font-variant-east-asian:normal;font-feature-settings:normal;font-variation-settings:normal;text-indent:0;text-align:start;text-decoration:none;text-decoration-line:none;text-decoration-style:solid;text-decoration-color:#000000;letter-spacing:normal;word-spacing:normal;text-transform:none;writing-mode:lr-tb;direction:ltr;text-orientation:mixed;dominant-baseline:auto;baseline-shift:baseline;text-anchor:start;white-space:normal;shape-padding:0;shape-margin:0;inline-size:0;clip-rule:nonzero;display:inline;overflow:visible;visibility:visible;opacity:0.157165;isolation:auto;mix-blend-mode:normal;color-interpolation:sRGB;color-interpolation-filters:linearRGB;solid-color:#000000;solid-opacity:1;vector-effect:none;fill:#ffffff;fill-opacity:1;fill-rule:nonzero;stroke:none;stroke-width:0.755906;stroke-linecap:butt;stroke-linejoin:miter;stroke-miterlimit:4;stroke-dasharray:none;stroke-dashoffset:0;stroke-opacity:1;color-rendering:auto;image-rendering:auto;shape-rendering:auto;text-rendering:auto;enable-background:accumulate;stop-color:#000000;stop-opacity:1"
       id="path453" />
    <rect
       style="fill:url(#linearGradient3154);fill-opacity:1;stroke:#ffffff;stroke-width:0.553;stroke-miterlimit:4;stroke-dasharray:none;stroke-opacity:1"
       y="54.184978"
       x="54.694981"
       height="22.055079"
       width="22.61562"
       id="rect2292" />
    <g
       style="font-style:normal;font-weight:normal;font-size:22.5778px;line-height:1.25;font-family:sans-serif;white-space:pre;shape-inside:url(#rect1934);fill:#ffffff;fill-opacity:1;stroke:none;stroke-width:1.68006"
       id="text1932"
       transform="matrix(0.60432584,0,0,0.60432584,9.9582651,8.2435138)"
       aria-label="Ev">
      <path
         id="path2287"
         style="font-style:normal;font-variant:normal;font-weight:bold;font-stretch:normal;font-size:22.5778px;font-family:sans-serif;-inkscape-font-specification:'sans-serif Bold';fill:#ffffff;stroke-width:1.68006"
         d="M 90.276322,100.85939 H 80.996846 V 84.738837 h 9.279476 v 2.799647 h -5.870228 v 3.544715 h 5.463828 v 2.799647 h -5.463828 v 4.154316 h 5.870228 z" />
      <path
         id="path2289"
         style="font-style:normal;font-variant:normal;font-weight:bold;font-stretch:normal;font-size:22.5778px;font-family:sans-serif;-inkscape-font-specification:'sans-serif Bold';fill:#ffffff;stroke-width:1.68006"
         d="M 96.304583,100.85939 91.6084,88.531908 h 3.522137 l 2.370669,7.021696 q 0.203201,0.632178 0.31609,1.309512 0.135466,0.677334 0.158044,1.219201 h 0.09031 q 0.06773,-1.219201 0.496712,-2.528713 l 2.370668,-7.021696 h 3.52214 l -4.696185,12.327482 z" />
    </g>
    <g
       style="font-style:normal;font-variant:normal;font-weight:bold;font-stretch:normal;font-size:22.5778px;line-height:1.25;font-family:sans-serif;-inkscape-font-specification:'sans-serif Bold';letter-spacing:-0.740833px;white-space:pre;shape-inside:url(#rect1948);fill:#ffffff;fill-opacity:1;stroke:none;stroke-width:1.68006"
       id="text1946"
       transform="matrix(0.59521688,0,0,0.59521688,15.527751,1.6643669)"
       aria-label="ent">
      <path
         id="path3713"
         style="font-style:normal;font-variant:normal;font-weight:bold;font-stretch:normal;font-family:sans-serif;-inkscape-font-specification:'sans-serif Bold';letter-spacing:-0.971021px;fill:#ffffff;stroke-width:1.68006"
         d="m 111.43873,100.67722 q 2.55129,0 4.04143,1.46756 1.49013,1.44498 1.49013,4.13174 v 1.6256 h -7.94738 q 0.0452,1.4224 0.83537,2.2352 0.8128,0.8128 2.23521,0.8128 1.19662,0 2.16746,-0.22578 0.97085,-0.24835 2.00943,-0.74506 v 2.59644 q -0.90311,0.45156 -1.91911,0.65476 -0.99343,0.22578 -2.41583,0.22578 -1.85138,0 -3.27378,-0.67734 -1.4224,-0.69991 -2.2352,-2.09973 -0.8128,-1.39982 -0.8128,-3.52214 0,-2.16747 0.72249,-3.58987 0.74506,-1.44498 2.05458,-2.16747 1.30951,-0.72249 3.048,-0.72249 z m 0.0226,2.39325 q -0.97085,0 -1.6256,0.63218 -0.63218,0.63218 -0.74507,1.96427 h 4.71876 q -0.0226,-1.12889 -0.58702,-1.85138 -0.56445,-0.74507 -1.76107,-0.74507 z" />
      <path
         id="path3715"
         style="font-style:normal;font-variant:normal;font-weight:bold;font-stretch:normal;font-family:sans-serif;-inkscape-font-specification:'sans-serif Bold';letter-spacing:-0.971021px;fill:#ffffff;stroke-width:1.68006"
         d="m 125.23955,100.67722 q 1.98685,0 3.18347,1.08374 1.19663,1.06115 1.19663,3.43182 v 8.0377 h -3.3641 v -7.20232 q 0,-1.33209 -0.47413,-1.98684 -0.47413,-0.67734 -1.51271,-0.67734 -1.53529,0 -2.09974,1.06116 -0.56444,1.03858 -0.56444,3.00285 v 5.80249 h -3.36409 V 100.903 h 2.57386 l 0.45156,1.58045 h 0.18062 q 0.58703,-0.94827 1.60303,-1.37725 1.03858,-0.42898 2.19004,-0.42898 z" />
      <path
         id="path3717"
         style="font-style:normal;font-variant:normal;font-weight:bold;font-stretch:normal;font-size:22.5778px;font-family:sans-serif;-inkscape-font-specification:'sans-serif Bold';fill:#ffffff;stroke-width:1.68006"
         d="m 136.96875,110.7695 q 0.56445,0 1.08374,-0.11289 0.51929,-0.11289 1.03858,-0.27093 v 2.50613 q -0.54187,0.22578 -1.35467,0.38383 -0.79022,0.18062 -1.73849,0.18062 -1.10631,0 -1.98685,-0.36125 -0.85795,-0.36124 -1.37724,-1.24178 -0.49672,-0.90311 -0.49672,-2.48355 v -5.93796 h -1.60302 v -1.42241 l 1.85138,-1.12889 0.97085,-2.596443 h 2.14489 V 100.903 h 3.4544 v 2.52872 h -3.4544 v 5.93796 q 0,0.69991 0.4064,1.06115 0.4064,0.33867 1.06115,0.33867 z" />
    </g>
    <rect
       id="rect3156"
       width="22.644638"
       height="21.898201"
       x="77.314598"
       y="76.244072"
       style="opacity:1;fill:url(#linearGradient3158);fill-opacity:1;stroke:#ffffff;stroke-width:0.566424;stroke-miterlimit:4;stroke-dasharray:none;stroke-opacity:1" />
    <text
       transform="matrix(0.60380711,0,0,0.60380711,14.878036,22.919021)"
       style="font-style:normal;font-weight:normal;font-size:22.5778px;line-height:1.25;font-family:sans-serif;letter-spacing:-1.5584px;white-space:pre;shape-inside:url(#rect1948-6);fill:#ffffff;fill-opacity:1;stroke:none;stroke-width:1.68006;"
       id="text1946-1"
       xml:space="preserve"><tspan
         x="104.59766"
         y="113.23048"><tspan
           style="font-style:normal;font-variant:normal;font-weight:bold;font-stretch:normal;font-size:22.5778px;font-family:sans-serif;-inkscape-font-specification:'sans-serif Bold';fill:#ffffff;stroke-width:1.68006">M</tspan><tspan
           style="font-weight:bold;stroke-width:1.68006">o</tspan></tspan></text>
    <g
       style="font-style:normal;font-variant:normal;font-weight:bold;font-stretch:normal;font-size:22.5778px;line-height:1.25;font-family:sans-serif;-inkscape-font-specification:'sans-serif Bold';letter-spacing:-1.56633px;white-space:pre;shape-inside:url(#rect1948-6-8);fill:#ffffff;fill-opacity:1;stroke:none;stroke-width:1.68006"
       id="text1946-1-3"
       transform="matrix(0.59521688,0,0,0.59521688,38.260091,23.774972)"
       aria-label="deling">
      <path
         id="path3720"
         style="font-style:normal;font-variant:normal;font-weight:bold;font-stretch:normal;font-size:22.5778px;font-family:sans-serif;-inkscape-font-specification:'sans-serif Bold';fill:#ffffff;stroke-width:1.68006"
         d="m 110.26468,113.45626 q -2.05458,0 -3.36409,-1.60303 -1.28693,-1.6256 -1.28693,-4.76391 0,-3.16089 1.30951,-4.78649 1.30951,-1.62561 3.43183,-1.62561 1.33209,0 2.19004,0.51929 0.85796,0.51929 1.35467,1.28694 h 0.11289 q -0.0677,-0.36125 -0.15805,-1.03858 -0.0903,-0.69991 -0.0903,-1.4224 v -3.951118 h 3.3641 v 17.159128 h -2.57387 l -0.65476,-1.60302 h -0.13547 q -0.49671,0.76764 -1.33209,1.30951 -0.83538,0.51929 -2.16747,0.51929 z m 1.17405,-2.68676 q 1.39982,0 1.96427,-0.8128 0.56444,-0.83538 0.58702,-2.48356 v -0.36124 q 0,-1.80623 -0.56444,-2.7545 -0.54187,-0.94826 -2.03201,-0.94826 -1.10631,0 -1.73849,0.97084 -0.63217,0.94827 -0.63217,2.75449 0,1.80623 0.63217,2.73192 0.63218,0.90311 1.78365,0.90311 z" />
      <path
         id="path3722"
         style="font-style:normal;font-variant:normal;font-weight:bold;font-stretch:normal;font-size:22.5778px;font-family:sans-serif;-inkscape-font-specification:'sans-serif Bold';fill:#ffffff;stroke-width:1.68006"
         d="m 124.16413,100.67722 q 2.5513,0 4.04143,1.46756 1.49014,1.44498 1.49014,4.13174 v 1.6256 h -7.94739 q 0.0452,1.4224 0.83538,2.2352 0.8128,0.8128 2.2352,0.8128 1.19662,0 2.16747,-0.22578 0.97085,-0.24835 2.00942,-0.74506 v 2.59644 q -0.90311,0.45156 -1.91911,0.65476 -0.99342,0.22578 -2.41582,0.22578 -1.85138,0 -3.27378,-0.67734 -1.42241,-0.69991 -2.23521,-2.09973 -0.8128,-1.39982 -0.8128,-3.52214 0,-2.16747 0.72249,-3.58987 0.74507,-1.44498 2.05458,-2.16747 1.30951,-0.72249 3.048,-0.72249 z m 0.0226,2.39325 q -0.97084,0 -1.6256,0.63218 -0.63218,0.63218 -0.74507,1.96427 h 4.71876 q -0.0226,-1.12889 -0.58702,-1.85138 -0.56444,-0.74507 -1.76107,-0.74507 z" />
      <path
         id="path3724"
         style="font-style:normal;font-variant:normal;font-weight:bold;font-stretch:normal;font-size:22.5778px;font-family:sans-serif;-inkscape-font-specification:'sans-serif Bold';fill:#ffffff;stroke-width:1.68006"
         d="m 134.22536,113.23048 h -3.36409 V 96.071352 h 3.36409 z" />
      <path
         id="path3726"
         style="font-style:normal;font-variant:normal;font-weight:bold;font-stretch:normal;font-size:22.5778px;font-family:sans-serif;-inkscape-font-specification:'sans-serif Bold';fill:#ffffff;stroke-width:1.68006"
         d="m 137.87447,96.071352 q 0.74507,0 1.28693,0.361245 0.54187,0.338667 0.54187,1.286934 0,0.92569 -0.54187,1.286935 -0.54186,0.361245 -1.28693,0.361245 -0.76764,0 -1.30951,-0.361245 -0.51929,-0.361245 -0.51929,-1.286935 0,-0.948267 0.51929,-1.286934 0.54187,-0.361245 1.30951,-0.361245 z m 1.67076,4.831648 v 12.32748 h -3.36409 V 100.903 Z" />
      <path
         id="path3728"
         style="font-style:normal;font-variant:normal;font-weight:bold;font-stretch:normal;font-size:22.5778px;font-family:sans-serif;-inkscape-font-specification:'sans-serif Bold';fill:#ffffff;stroke-width:1.68006"
         d="m 148.50012,100.67722 q 1.98684,0 3.18347,1.08374 1.19662,1.06115 1.19662,3.43182 v 8.0377 h -3.36409 v -7.20232 q 0,-1.33209 -0.47414,-1.98684 -0.47413,-0.67734 -1.51271,-0.67734 -1.53529,0 -2.09974,1.06116 -0.56444,1.03858 -0.56444,3.00285 v 5.80249 H 141.501 V 100.903 h 2.57387 l 0.45155,1.58045 h 0.18063 q 0.58702,-0.94827 1.60302,-1.37725 1.03858,-0.42898 2.19005,-0.42898 z" />
      <path
         id="path3730"
         style="font-style:normal;font-variant:normal;font-weight:bold;font-stretch:normal;font-size:22.5778px;font-family:sans-serif;-inkscape-font-specification:'sans-serif Bold';fill:#ffffff;stroke-width:1.68006"
         d="m 158.76455,100.67722 q 2.28035,0 3.56729,1.80623 h 0.0903 l 0.27093,-1.58045 h 2.84481 v 12.35006 q 0,2.6416 -1.55787,4.01885 -1.55787,1.37724 -4.60587,1.37724 -1.30952,0 -2.43841,-0.15804 -1.10631,-0.15805 -2.16747,-0.56445 v -2.68676 q 2.28036,0.94827 4.80908,0.94827 2.59644,0 2.59644,-2.79964 v -0.24836 q 0,-0.38382 0.0226,-0.79022 0.0452,-0.4064 0.0677,-0.72249 h -0.0903 q -0.63218,0.97084 -1.51271,1.39982 -0.88053,0.42898 -1.98685,0.42898 -2.19004,0 -3.43182,-1.67076 -1.2192,-1.69333 -1.2192,-4.69618 0,-3.02543 1.26435,-4.71876 1.26436,-1.69334 3.47699,-1.69334 z m 1.06115,2.73192 q -2.37067,0 -2.37067,3.72533 0,3.68019 2.41583,3.68019 1.28693,0 1.89653,-0.72249 0.63218,-0.74507 0.63218,-2.57387 v -0.4064 q 0,-1.98685 -0.6096,-2.84481 -0.6096,-0.85795 -1.96427,-0.85795 z" />
    </g>
    <text
       transform="matrix(0.08770319,0,0,0.09107104,47.065086,46.758081)"
       style="font-style:normal;font-variant:normal;font-weight:bold;font-stretch:normal;font-size:22.5778px;line-height:1.25;font-family:sans-serif;-inkscape-font-specification:'sans-serif Bold';letter-spacing:-0.740833px;white-space:pre;shape-inside:url(#rect3197);fill:#ffffff;fill-opacity:1;stroke:none;stroke-width:1.68006;"
       id="text3195"
       xml:space="preserve"><tspan
         x="104.59766"
         y="113.57197"><tspan
           style="font-style:normal;font-variant:normal;font-weight:normal;font-stretch:normal;font-size:22.5778px;font-family:FreeSans;-inkscape-font-specification:FreeSans;fill:#ffffff;stroke-width:1.68006">79.904</tspan></tspan></text>
    <text
       y="0"
       x="20.610277"
       xml:space="preserve"
       id="text3201"
       style="font-style:normal;font-variant:normal;font-weight:normal;font-stretch:normal;font-size:22.5778px;line-height:1.15;font-family:sans-serif;-inkscape-font-specification:sans-serif;text-align:end;letter-spacing:-3.11898px;white-space:pre;shape-inside:url(#rect3203);fill:#ffffff;fill-opacity:1;stroke:none;stroke-width:1.68006;"
       transform="matrix(0.08770319,0,0,0.09107104,63.091682,46.992734)"><tspan
         x="137.49308"
         y="112.10159"><tspan
           style="font-style:normal;font-variant:normal;font-weight:normal;font-stretch:normal;font-family:sans-serif;-inkscape-font-specification:sans-serif;text-align:end;letter-spacing:-3.11898px;text-anchor:end;stroke-width:1.68006">-1
</tspan></tspan><tspan
         x="131.84863"
         y="138.06606"><tspan
           style="font-style:normal;font-variant:normal;font-weight:normal;font-stretch:normal;font-family:sans-serif;-inkscape-font-specification:sans-serif;text-align:end;letter-spacing:-3.11898px;text-anchor:end;stroke-width:1.68006">+1
</tspan></tspan><tspan
         x="131.84863"
         y="164.03053"><tspan
           style="font-style:normal;font-variant:normal;font-weight:normal;font-stretch:normal;font-family:sans-serif;-inkscape-font-specification:sans-serif;text-align:end;letter-spacing:-3.11898px;text-anchor:end;stroke-width:1.68006">+</tspan><tspan
           style="font-style:normal;font-variant:normal;font-weight:normal;font-stretch:normal;font-size:22.5778px;font-family:sans-serif;-inkscape-font-specification:sans-serif;text-align:end;letter-spacing:-3.11898px;text-anchor:end;fill:#ffffff;stroke-width:1.68006">5</tspan></tspan></text>
    <text
       xml:space="preserve"
       id="text11701"
       style="font-style:normal;font-variant:normal;font-weight:bold;font-stretch:normal;font-size:22.5778px;line-height:1.25;font-family:sans-serif;-inkscape-font-specification:'sans-serif Bold';letter-spacing:-0.740833px;white-space:pre;shape-inside:url(#rect11703);fill:#ffffff;fill-opacity:1;stroke:none;stroke-width:1.68006;"
       transform="matrix(0.12937435,0,0,0.13434239,42.028447,57.009736)"><tspan
         x="104.59766"
         y="113.57197"><tspan
           style="font-style:normal;font-variant:normal;font-weight:normal;font-stretch:normal;font-size:22.5778px;font-family:FreeSans;-inkscape-font-specification:FreeSans;fill:#ffffff;stroke-width:1.68006">35</tspan></tspan></text>
    <text
       transform="matrix(0.08778573,0,0,0.09115675,46.59533,64.401461)"
       style="font-style:normal;font-variant:normal;font-weight:bold;font-stretch:normal;font-size:22.5778px;line-height:1.25;font-family:sans-serif;-inkscape-font-specification:'sans-serif Bold';letter-spacing:-0.740833px;white-space:pre;shape-inside:url(#rect11709);fill:#ffffff;fill-opacity:1;stroke:none;stroke-width:1.68006;"
       id="text11707"
       xml:space="preserve"><tspan
         x="104.59766"
         y="113.57197"><tspan
           style="font-style:normal;font-variant:normal;font-weight:normal;font-stretch:normal;font-size:22.5778px;font-family:FreeSans;-inkscape-font-specification:FreeSans;fill:#ffffff;stroke-width:1.68006">2-8-18-7</tspan></tspan></text>
    <text
       xml:space="preserve"
       id="text11713"
       style="font-style:normal;font-variant:normal;font-weight:bold;font-stretch:normal;font-size:22.5778px;line-height:1.25;font-family:sans-serif;-inkscape-font-specification:'sans-serif Bold';letter-spacing:-0.740833px;white-space:pre;shape-inside:url(#rect11731);fill:#ffffff;fill-opacity:1;stroke:none;stroke-width:1.68006;"
       transform="matrix(0.08770319,0,0,0.09107104,69.829125,68.897396)"><tspan
         x="104.59766"
         y="113.57197"><tspan
           style="font-style:normal;font-variant:normal;font-weight:normal;font-stretch:normal;font-size:22.5778px;font-family:FreeSans;-inkscape-font-specification:FreeSans;fill:#ffffff;stroke-width:1.68006">95.95</tspan></tspan></text>
    <text
       transform="matrix(0.08770319,0,0,0.09107104,85.653039,68.891592)"
       style="font-style:normal;font-variant:normal;font-weight:bold;font-stretch:normal;font-size:22.5778px;line-height:1.15;font-family:sans-serif;-inkscape-font-specification:'sans-serif Bold';text-align:end;letter-spacing:-3.11898px;white-space:pre;shape-inside:url(#rect11733);fill:#ffffff;fill-opacity:1;stroke:none;stroke-width:1.68006;"
       id="text11721"
       xml:space="preserve"
       x="20.610277"
       y="0"><tspan
         x="137.60595"
         y="112.44308"><tspan
           style="font-style:normal;font-variant:normal;font-weight:normal;font-stretch:normal;font-size:22.5778px;font-family:FreeSans;-inkscape-font-specification:FreeSans;text-align:end;letter-spacing:-3.11898px;text-anchor:end;fill:#ffffff;stroke-width:1.68006">-4
</tspan></tspan><tspan
         x="137.60595"
         y="138.74903"><tspan
           style="font-style:normal;font-variant:normal;font-weight:normal;font-stretch:normal;font-size:22.5778px;font-family:FreeSans;-inkscape-font-specification:FreeSans;text-align:end;letter-spacing:-3.11898px;text-anchor:end;fill:#ffffff;stroke-width:1.68006">-2
</tspan></tspan><tspan
         x="131.93889"
         y="165.05498"><tspan
           style="font-style:normal;font-variant:normal;font-weight:normal;font-stretch:normal;font-size:22.5778px;font-family:FreeSans;-inkscape-font-specification:FreeSans;text-align:end;letter-spacing:-3.11898px;text-anchor:end;fill:#ffffff;stroke-width:1.68006">+6</tspan></tspan></text>
    <text
       transform="matrix(0.12937435,0,0,0.13434239,64.792485,79.057575)"
       style="font-style:normal;font-variant:normal;font-weight:bold;font-stretch:normal;font-size:22.5778px;line-height:1.25;font-family:sans-serif;-inkscape-font-specification:'sans-serif Bold';letter-spacing:-0.740833px;white-space:pre;shape-inside:url(#rect11735);fill:#ffffff;fill-opacity:1;stroke:none;stroke-width:1.68006;"
       id="text11725"
       xml:space="preserve"><tspan
         x="104.59766"
         y="113.57197"><tspan
           style="font-style:normal;font-variant:normal;font-weight:normal;font-stretch:normal;font-size:22.5778px;font-family:FreeSans;-inkscape-font-specification:FreeSans;fill:#ffffff;stroke-width:1.68006">42</tspan></tspan></text>
    <text
       xml:space="preserve"
       id="text11729"
       style="font-style:normal;font-variant:normal;font-weight:bold;font-stretch:normal;font-size:22.5778px;line-height:1.25;font-family:sans-serif;-inkscape-font-specification:'sans-serif Bold';letter-spacing:-0.740833px;white-space:pre;shape-inside:url(#rect11737);fill:#ffffff;fill-opacity:1;stroke:none;stroke-width:1.68006;"
       transform="matrix(0.08778573,0,0,0.09115675,69.331295,86.334953)"><tspan
         x="104.59766"
         y="113.57197"><tspan
           style="font-style:normal;font-variant:normal;font-weight:normal;font-stretch:normal;font-size:22.5778px;font-family:FreeSans;-inkscape-font-specification:FreeSans;fill:#ffffff;stroke-width:1.68006">2-8-18-13-1</tspan></tspan></text>
    <g
       aria-label="C"
       transform="matrix(0.16036802,0,0,0.17846223,94.744279,79.059319)"
       id="text1628"
       style="font-style:normal;font-weight:normal;font-size:10.5833px;line-height:1.25;font-family:sans-serif;opacity:0.060632;fill:none;fill-opacity:1;stroke:#ffffff;stroke-width:0.712194;stroke-opacity:1;filter:url(#filter4166)" />
    <g
       aria-label="Q"
       transform="matrix(0.16036802,0,0,0.17846223,99.749574,77.458709)"
       id="text1632"
       style="font-style:normal;font-weight:normal;font-size:10.5833px;line-height:1.25;font-family:sans-serif;opacity:0.060632;fill:none;fill-opacity:1;stroke:#ffffff;stroke-width:0.712194;stroke-opacity:1;filter:url(#filter4162)" />
    <g
       aria-label="R"
       transform="matrix(0.16036802,0,0,0.17846223,89.008271,82.545445)"
       id="text1636"
       style="font-style:normal;font-weight:normal;font-size:10.5833px;line-height:1.25;font-family:sans-serif;opacity:0.060632;fill:none;fill-opacity:1;stroke:#ffffff;stroke-width:0.712194;stroke-opacity:1;filter:url(#filter4154)" />
    <g
       aria-label="S"
       transform="matrix(0.16036802,0,0,0.17846223,101.27914,77.200677)"
       id="text1640"
       style="font-style:normal;font-weight:normal;font-size:10.5833px;line-height:1.25;font-family:sans-serif;opacity:0.060632;fill:none;fill-opacity:1;stroke:#ffffff;stroke-width:0.712194;stroke-opacity:1;filter:url(#filter4158)" />
    <g
       aria-label="E"
       transform="matrix(0.16036802,0,0,0.17846223,101.55565,72.772859)"
       id="text1644"
       style="font-style:normal;font-weight:normal;font-size:10.5833px;line-height:1.25;font-family:sans-serif;opacity:0.060632;fill:none;fill-opacity:1;stroke:#ffffff;stroke-width:0.712194;stroke-opacity:1;filter:url(#filter4150)" />
    <g
       aria-label="S"
       transform="matrix(0.16036802,0,0,0.17846223,93.638303,84.313186)"
       id="text1252"
       style="font-style:normal;font-weight:normal;font-size:10.5833px;line-height:1.25;font-family:sans-serif;opacity:0.060632;fill:none;fill-opacity:1;stroke:#ffffff;stroke-width:0.712194;stroke-opacity:1;filter:url(#filter4158)" />
    <path
       id="path1308"
       style="opacity:0.157165;fill:none;stroke:#ffffff;stroke-width:0.2;stroke-miterlimit:4;stroke-dasharray:none;stroke-opacity:1"
       d="m 112.90117,58.596953 2.32684,1.495524 m 0,2.991055 -2.32684,1.495523 m -2.32684,-1.495523 v -2.991055 m 5.12064,3.292491 v -3.593932 l 2.79687,-1.796966 2.79687,1.796966 v 3.593932 m -0.003,0 v -3.593932 l 2.79686,-1.796966 2.79687,1.796966 m -11.18133,3.593932 -2.79686,1.796971 -2.79688,-1.796971 v -3.593932 l 2.79688,-1.796966 2.79686,1.796966 z m 1.15236,0.833107 q 0,0.179428 -0.11711,0.279525 -0.11711,0.100103 -0.31568,0.100103 -0.10184,0 -0.18839,-0.01702 -0.0866,-0.01702 -0.14427,-0.0472 v -0.162422 q 0.0611,0.03024 0.15106,0.05476 0.0916,0.02452 0.18838,0.02452 0.13579,0 0.20367,-0.05857 0.0696,-0.05857 0.0696,-0.15865 0,-0.0661 -0.0254,-0.111435 -0.0254,-0.04536 -0.0883,-0.0831 -0.0611,-0.03964 -0.17143,-0.0831 -0.15444,-0.06233 -0.23421,-0.152989 -0.0781,-0.09066 -0.0781,-0.24742 0,-0.107656 0.0492,-0.183207 0.0492,-0.07744 0.13577,-0.11899 0.0883,-0.04154 0.20197,-0.04154 0.10014,0 0.18331,0.02078 0.0832,0.02078 0.15105,0.05476 l -0.0475,0.145429 q -0.0628,-0.03024 -0.13747,-0.05101 -0.073,-0.02078 -0.15275,-0.02078 -0.11372,0 -0.17142,0.05476 -0.0577,0.05291 -0.0577,0.141656 0,0.06799 0.0254,0.113317 0.0254,0.04535 0.0831,0.08122 0.0578,0.03589 0.15616,0.07744 0.10692,0.04345 0.1799,0.09443 0.0746,0.0491 0.11202,0.11899 0.039,0.06989 0.039,0.175654 z m 7.5406,-8.371244 h -0.67719 v -1.348549 h 0.67719 v 0.149208 h -0.52445 v 0.421188 h 0.4939 v 0.147324 h -0.4939 v 0.48162 h 0.52445 z m 0.10024,1.258735 q 0,0.179428 -0.11712,0.279526 -0.11711,0.100103 -0.31568,0.100103 -0.10183,0 -0.18839,-0.01696 -0.0866,-0.01702 -0.14427,-0.0472 v -0.162429 q 0.0611,0.03024 0.15105,0.05476 0.0917,0.02452 0.18839,0.02452 0.13579,0 0.20367,-0.05857 0.0696,-0.05857 0.0696,-0.158649 0,-0.0661 -0.0254,-0.111436 -0.0254,-0.04535 -0.0883,-0.0831 -0.0611,-0.03964 -0.17142,-0.0831 -0.15445,-0.06233 -0.23421,-0.152988 -0.0781,-0.09065 -0.0781,-0.24742 0,-0.107657 0.0492,-0.183208 0.0492,-0.07743 0.13577,-0.118984 0.0883,-0.04154 0.20197,-0.04154 0.10014,0 0.1833,0.02078 0.0832,0.02078 0.15106,0.05476 l -0.0475,0.145429 q -0.0628,-0.03024 -0.13748,-0.05101 -0.073,-0.02078 -0.15275,-0.02078 -0.11371,0 -0.17142,0.05476 -0.0578,0.05291 -0.0578,0.141656 0,0.068 0.0254,0.113324 0.0254,0.04535 0.0832,0.08121 0.0577,0.03589 0.15615,0.07744 0.10692,0.04345 0.17991,0.09444 0.0746,0.0491 0.11201,0.11899 0.039,0.06989 0.039,0.175648 z m -15.23714,6.12471 q 0.22574,0 0.33266,0.09632 0.10862,0.09444 0.10862,0.287091 0,0.107657 -0.0357,0.179428 -0.0357,0.07177 -0.0916,0.115211 -0.0543,0.04154 -0.11542,0.0661 l 0.33266,0.604388 h -0.17821 l -0.29362,-0.55717 h -0.241 v 0.55717 h -0.15276 v -1.34854 z m -0.008,0.147316 h -0.17312 v 0.500512 h 0.18161 q 0.14766,0 0.21555,-0.06422 0.0678,-0.0661 0.0678,-0.192648 0,-0.132209 -0.0713,-0.186981 -0.0713,-0.05666 -0.22064,-0.05666 z m 9.83115,-6.585556 q 0,0.247419 -0.09,0.421181 -0.0883,0.173761 -0.26307,0.239872 l 0.29023,0.336191 h -0.21895 l -0.23421,-0.304085 q -0.0102,0 -0.022,0 -0.0102,0.0018 -0.0204,0.0018 -0.1884,0 -0.31399,-0.08688 -0.1239,-0.08688 -0.18499,-0.243645 -0.0611,-0.156769 -0.0611,-0.366416 0,-0.207755 0.0611,-0.36263 0.0611,-0.154876 0.18499,-0.241759 0.12559,-0.08688 0.31568,-0.08688 0.18161,0 0.30551,0.08688 0.12389,0.085 0.18668,0.241759 0.0645,0.154875 0.0645,0.364523 z m -0.95724,0 q 0,0.254978 0.0967,0.402301 0.0967,0.145429 0.3021,0.145429 0.20707,0 0.30211,-0.145429 0.0951,-0.147323 0.0951,-0.402301 0,-0.254979 -0.0951,-0.398522 -0.095,-0.145429 -0.30041,-0.145429 -0.20536,0 -0.3038,0.145429 -0.0967,0.143543 -0.0967,0.398522 z m -5.10379,-0.543951 q -0.19518,0 -0.3072,0.145429 -0.11202,0.145435 -0.11202,0.398522 0,0.251199 0.10353,0.398521 0.10523,0.145429 0.31399,0.145429 0.0798,0 0.15106,-0.01512 0.0713,-0.01512 0.13916,-0.03779 v 0.147328 q -0.0679,0.02834 -0.14086,0.04154 -0.0713,0.01322 -0.17142,0.01322 -0.185,0 -0.3089,-0.08499 -0.1239,-0.08499 -0.1867,-0.241754 -0.0611,-0.156761 -0.0611,-0.368302 0,-0.203981 0.0662,-0.358856 0.0679,-0.156762 0.19857,-0.24364 0.13069,-0.08877 0.31739,-0.08877 0.19178,0 0.33435,0.07933 l -0.0611,0.143542 q -0.056,-0.02834 -0.12559,-0.05101 -0.0679,-0.02262 -0.14936,-0.02262 z" />
    <path
       d="m 125.49993,74.345404 2.32684,1.495524 m 0,2.991048 -2.32684,1.495524 m -2.32684,-1.495524 v -2.991048 m 5.12064,3.29249 v -3.593937 l 2.79687,-1.79696 2.79687,1.79696 v 3.593937 m -0.003,0 v -3.593937 l 2.79687,-1.79696 2.79687,1.79696 m -11.18133,3.593937 -2.79688,1.796965 -2.79687,-1.796965 v -3.593937 l 2.79687,-1.79696 2.79688,1.79696 z m 1.15235,0.833101 q 0,0.179428 -0.11711,0.279532 -0.1171,0.100103 -0.31568,0.100103 -0.10184,0 -0.18839,-0.01702 -0.0866,-0.01702 -0.14426,-0.0472 v -0.162433 q 0.0611,0.03024 0.15105,0.05476 0.0916,0.02452 0.18839,0.02452 0.13577,0 0.20367,-0.05857 0.0696,-0.05857 0.0696,-0.158649 0,-0.0661 -0.0254,-0.111436 -0.0254,-0.04535 -0.0883,-0.0831 -0.0611,-0.03964 -0.17142,-0.0831 -0.15445,-0.06233 -0.23422,-0.152989 -0.0781,-0.09065 -0.0781,-0.24742 0,-0.107651 0.0492,-0.183207 0.0492,-0.07743 0.13578,-0.118984 0.0883,-0.04154 0.20197,-0.04154 0.10013,0 0.1833,0.02078 0.0832,0.02078 0.15105,0.05476 l -0.0475,0.145428 q -0.0628,-0.03024 -0.13747,-0.05101 -0.073,-0.02078 -0.15275,-0.02078 -0.11372,0 -0.17141,0.05476 -0.0577,0.05286 -0.0577,0.141656 0,0.068 0.0254,0.113324 0.0255,0.04535 0.0832,0.08121 0.0578,0.0359 0.15614,0.07744 0.10693,0.04345 0.17991,0.09444 0.0746,0.0491 0.11201,0.11899 0.039,0.06989 0.039,0.175649 z m 7.54061,-8.371237 h -0.6772 v -1.348548 h 0.6772 v 0.149209 h -0.52445 v 0.421187 h 0.49389 v 0.147317 h -0.49389 v 0.481619 h 0.52445 z m 0.10022,1.258728 q 0,0.179428 -0.1171,0.279532 -0.11711,0.100103 -0.31568,0.100103 -0.10184,0 -0.1884,-0.01696 -0.0866,-0.01702 -0.14426,-0.0472 v -0.162423 q 0.0611,0.03024 0.15105,0.05476 0.0917,0.02452 0.18839,0.02452 0.13578,0 0.20366,-0.05857 0.0696,-0.05857 0.0696,-0.158649 0,-0.0661 -0.0254,-0.111436 -0.0254,-0.04535 -0.0883,-0.0831 -0.0611,-0.03964 -0.17142,-0.0831 -0.15445,-0.06233 -0.23422,-0.152988 -0.0781,-0.09066 -0.0781,-0.24742 0,-0.107656 0.0492,-0.183208 0.0492,-0.07744 0.13577,-0.118989 0.0883,-0.04154 0.20197,-0.04154 0.10015,0 0.18331,0.02078 0.0832,0.02078 0.15104,0.05476 l -0.0475,0.145429 q -0.0628,-0.03024 -0.13747,-0.05101 -0.073,-0.02078 -0.15275,-0.02078 -0.11372,0 -0.17142,0.05476 -0.0578,0.05291 -0.0578,0.141649 0,0.068 0.0254,0.113324 0.0254,0.04535 0.0832,0.08122 0.0577,0.0359 0.15615,0.07744 0.10692,0.04345 0.1799,0.09443 0.0746,0.0491 0.11202,0.11899 0.039,0.06989 0.039,0.175655 z m -15.23712,6.12471 q 0.22573,0 0.33266,0.09632 0.10861,0.09444 0.10861,0.287086 0,0.107657 -0.0357,0.179428 -0.0357,0.07177 -0.0917,0.115216 -0.0542,0.04154 -0.11541,0.0661 l 0.33265,0.604394 h -0.1782 l -0.29363,-0.55717 h -0.241 v 0.55717 h -0.15275 v -1.348547 z m -0.008,0.147323 h -0.17312 v 0.500512 h 0.1816 q 0.14766,0 0.21555,-0.06422 0.0679,-0.0661 0.0679,-0.192648 0,-0.132216 -0.0713,-0.186988 -0.0713,-0.05666 -0.22063,-0.05666 z m 9.83133,-6.585563 q 0,0.247425 -0.09,0.421187 -0.0883,0.173762 -0.26308,0.239866 l 0.29024,0.336197 h -0.21895 l -0.23421,-0.304085 q -0.0102,0 -0.022,0 -0.0102,0.0018 -0.0204,0.0018 -0.1884,0 -0.31399,-0.08688 -0.1239,-0.08688 -0.185,-0.243646 -0.0611,-0.156763 -0.0611,-0.36641 0,-0.207754 0.0611,-0.362636 0.0611,-0.154875 0.185,-0.241752 0.12559,-0.08688 0.31567,-0.08688 0.18161,0 0.30551,0.08688 0.1239,0.08499 0.18669,0.241752 0.0645,0.154882 0.0645,0.364523 z m -0.95723,0 q 0,0.254979 0.0967,0.402301 0.0967,0.145429 0.3021,0.145429 0.20706,0 0.30211,-0.145429 0.095,-0.147322 0.095,-0.402301 0,-0.254973 -0.095,-0.398515 -0.0951,-0.14543 -0.30042,-0.14543 -0.20536,0 -0.30379,0.14543 -0.0967,0.143542 -0.0967,0.398515 z m -5.1038,-0.543945 q -0.19517,0 -0.3072,0.14543 -0.11201,0.145428 -0.11201,0.398515 0,0.251205 0.10353,0.398521 0.10523,0.145436 0.31398,0.145436 0.0798,0 0.15106,-0.01512 0.0713,-0.01512 0.13916,-0.03779 v 0.147321 q -0.0679,0.02834 -0.14086,0.04154 -0.0713,0.01322 -0.17142,0.01322 -0.185,0 -0.30889,-0.08499 -0.12391,-0.085 -0.1867,-0.241754 -0.0611,-0.156768 -0.0611,-0.368302 0,-0.203981 0.0662,-0.358863 0.0679,-0.156755 0.19858,-0.243639 0.13069,-0.08877 0.31738,-0.08877 0.19179,0 0.33435,0.07933 l -0.0611,0.143543 q -0.056,-0.02834 -0.12559,-0.05101 -0.0679,-0.02268 -0.14935,-0.02268 z"
       style="opacity:0.157165;fill:none;stroke:#ffffff;stroke-width:0.2;stroke-miterlimit:4;stroke-dasharray:none;stroke-opacity:1"
       id="path1387" />
    <g
       style="font-style:normal;font-weight:normal;font-size:10.5833px;line-height:1.25;font-family:sans-serif;opacity:0.060632;fill:none;fill-opacity:1;stroke:#ffffff;stroke-width:0.712194;stroke-opacity:1;filter:url(#filter4166)"
       id="g1391"
       transform="matrix(0.16036802,0,0,0.17846223,69.54676,79.059319)"
       aria-label="C" />
    <g
       style="font-style:normal;font-weight:normal;font-size:10.5833px;line-height:1.25;font-family:sans-serif;opacity:0.060632;fill:none;fill-opacity:1;stroke:#ffffff;stroke-width:0.712194;stroke-opacity:1;filter:url(#filter4162)"
       id="g1393"
       transform="matrix(0.16036802,0,0,0.17846223,74.55206,77.458709)"
       aria-label="Q" />
    <g
       style="font-style:normal;font-weight:normal;font-size:10.5833px;line-height:1.25;font-family:sans-serif;opacity:0.060632;fill:none;fill-opacity:1;stroke:#ffffff;stroke-width:0.712194;stroke-opacity:1;filter:url(#filter4154)"
       id="g1395"
       transform="matrix(0.16036802,0,0,0.17846223,63.810757,82.545445)"
       aria-label="R" />
    <g
       style="font-style:normal;font-weight:normal;font-size:10.5833px;line-height:1.25;font-family:sans-serif;opacity:0.060632;fill:none;fill-opacity:1;stroke:#ffffff;stroke-width:0.712194;stroke-opacity:1;filter:url(#filter4158)"
       id="g1397"
       transform="matrix(0.16036802,0,0,0.17846223,76.081625,77.200677)"
       aria-label="S" />
    <g
       style="font-style:normal;font-weight:normal;font-size:10.5833px;line-height:1.25;font-family:sans-serif;opacity:0.060632;fill:none;fill-opacity:1;stroke:#ffffff;stroke-width:0.712194;stroke-opacity:1;filter:url(#filter4150)"
       id="g1399"
       transform="matrix(0.16036802,0,0,0.17846223,76.358133,72.772859)"
       aria-label="E" />
    <g
       style="font-style:normal;font-weight:normal;font-size:10.5833px;line-height:1.25;font-family:sans-serif;opacity:0.060632;fill:none;fill-opacity:1;stroke:#ffffff;stroke-width:0.712194;stroke-opacity:1;filter:url(#filter4158)"
       id="g1401"
       transform="matrix(0.16036802,0,0,0.17846223,68.440788,84.313186)"
       aria-label="S" />
    <path
       d="m 87.703655,58.596953 2.326839,1.495524 m 0,2.991055 -2.326839,1.495523 m -2.32684,-1.495523 v -2.991055 m 5.120639,3.292491 v -3.593932 l 2.796864,-1.796966 2.79688,1.796966 v 3.593932 m -0.0032,0 v -3.593932 l 2.796872,-1.796966 2.79687,1.796966 m -11.181342,3.593932 -2.796871,1.796971 -2.796864,-1.796971 v -3.593932 l 2.796864,-1.796966 2.796871,1.796966 z m 1.15236,0.833107 q 0,0.179428 -0.117112,0.279525 -0.117104,0.100103 -0.31568,0.100103 -0.101832,0 -0.188392,-0.01702 -0.08656,-0.01702 -0.144264,-0.0472 v -0.162422 q 0.06112,0.03024 0.151056,0.05476 0.09165,0.02452 0.188392,0.02452 0.135768,0 0.203672,-0.05857 0.0696,-0.05857 0.0696,-0.15865 0,-0.0661 -0.02544,-0.111435 -0.02552,-0.04536 -0.08826,-0.0831 -0.06112,-0.03964 -0.171416,-0.0831 -0.154448,-0.06233 -0.234216,-0.152989 -0.07808,-0.09066 -0.07808,-0.24742 0,-0.107656 0.0492,-0.183207 0.0492,-0.07744 0.135768,-0.11899 0.08826,-0.04154 0.201976,-0.04154 0.100128,0 0.183296,0.02078 0.08316,0.02078 0.151048,0.05476 l -0.04752,0.145429 q -0.0628,-0.03024 -0.13748,-0.05101 -0.07296,-0.02078 -0.152744,-0.02078 -0.113712,0 -0.171416,0.05476 -0.05768,0.05291 -0.05768,0.141656 0,0.06799 0.02544,0.113317 0.02552,0.04535 0.08317,0.08122 0.05776,0.03589 0.156144,0.07744 0.10692,0.04345 0.179904,0.09443 0.07472,0.0491 0.112016,0.11899 0.03904,0.06989 0.03904,0.175654 z m 7.540408,-8.371244 h -0.677192 v -1.348549 h 0.677192 v 0.149208 h -0.524448 v 0.421188 h 0.493896 v 0.147324 h -0.493896 v 0.48162 h 0.524448 z m 0.100232,1.258735 q 0,0.179428 -0.117112,0.279526 -0.117104,0.100103 -0.315688,0.100103 -0.101824,0 -0.188392,-0.01696 -0.08655,-0.01702 -0.144256,-0.0472 v -0.162429 q 0.06112,0.03024 0.151048,0.05476 0.09166,0.02452 0.188392,0.02452 0.135776,0 0.203672,-0.05857 0.0696,-0.05857 0.0696,-0.158649 0,-0.0661 -0.02544,-0.111436 -0.02552,-0.04535 -0.08826,-0.0831 -0.06112,-0.03964 -0.171416,-0.0831 -0.154456,-0.06233 -0.234216,-0.152988 -0.07808,-0.09065 -0.07808,-0.24742 0,-0.107657 0.0492,-0.183208 0.0492,-0.07743 0.135776,-0.118984 0.08826,-0.04154 0.201976,-0.04154 0.100136,0 0.183296,0.02078 0.08317,0.02078 0.151056,0.05476 l -0.04752,0.145429 q -0.0628,-0.03024 -0.13748,-0.05101 -0.07296,-0.02078 -0.152752,-0.02078 -0.113712,0 -0.171416,0.05476 -0.05768,0.05291 -0.05768,0.141656 0,0.068 0.02544,0.113324 0.02544,0.04535 0.08317,0.08121 0.05768,0.03589 0.156144,0.07744 0.106928,0.04345 0.179904,0.09444 0.07464,0.0491 0.112024,0.11899 0.03904,0.06989 0.03904,0.175648 z m -15.237135,6.12471 q 0.225736,0 0.332656,0.09632 0.108624,0.09444 0.108624,0.287091 0,0.107657 -0.03568,0.179428 -0.03568,0.07177 -0.09164,0.115211 -0.05432,0.04154 -0.115416,0.0661 l 0.332664,0.604388 h -0.178216 l -0.293624,-0.55717 h -0.241 v 0.55717 h -0.152752 v -1.34854 z m -0.0085,0.147316 h -0.17312 v 0.500512 h 0.181608 q 0.147648,0 0.215544,-0.06422 0.06792,-0.0661 0.06792,-0.192648 0,-0.132209 -0.07128,-0.186981 -0.07128,-0.05666 -0.22064,-0.05666 z m 9.831167,-6.585556 q 0,0.247419 -0.08996,0.421181 -0.08826,0.173761 -0.263064,0.239872 l 0.290216,0.336191 H 93.597198 L 93.36299,57.485195 q -0.01016,0 -0.022,0 -0.01016,0.0018 -0.02032,0.0018 -0.188392,0 -0.313976,-0.08688 -0.123904,-0.08688 -0.185,-0.243645 -0.06112,-0.156769 -0.06112,-0.366416 0,-0.207755 0.06112,-0.36263 0.06112,-0.154876 0.185,-0.241759 0.125584,-0.08688 0.315672,-0.08688 0.181608,0 0.305504,0.08688 0.123896,0.085 0.186696,0.241759 0.06448,0.154875 0.06448,0.364523 z m -0.95724,0 q 0,0.254978 0.09674,0.402301 0.09674,0.145429 0.302104,0.145429 0.207064,0 0.302104,-0.145429 0.09505,-0.147323 0.09505,-0.402301 0,-0.254979 -0.09505,-0.398522 -0.09504,-0.145429 -0.300408,-0.145429 -0.205368,0 -0.3038,0.145429 -0.09674,0.143543 -0.09674,0.398522 z m -5.103799,-0.543951 q -0.195176,0 -0.307192,0.145429 -0.112016,0.145435 -0.112016,0.398522 0,0.251199 0.103528,0.398521 0.105224,0.145429 0.313984,0.145429 0.07976,0 0.151056,-0.01512 0.07128,-0.01512 0.139176,-0.03779 v 0.147328 q -0.06792,0.02834 -0.140872,0.04154 -0.07128,0.01322 -0.171424,0.01322 -0.184992,0 -0.308896,-0.08499 -0.123896,-0.08499 -0.186696,-0.241754 -0.06112,-0.156761 -0.06112,-0.368302 0,-0.203981 0.06616,-0.358856 0.06792,-0.156762 0.198576,-0.24364 0.130688,-0.08877 0.317376,-0.08877 0.191792,0 0.334352,0.07933 l -0.06112,0.143542 q -0.056,-0.02834 -0.1256,-0.05101 -0.06792,-0.02262 -0.14936,-0.02262 z"
       style="opacity:0.157165;fill:none;stroke:#ffffff;stroke-width:0.2;stroke-miterlimit:4;stroke-dasharray:none;stroke-opacity:1"
       id="path1403" />
    <path
       d="m 62.506142,90.093854 2.326844,1.495529 m 0,2.991048 -2.326844,1.49552 m -2.32684,-1.49552 v -2.991048 m 5.120641,3.292488 v -3.593944 l 2.796868,-1.796956 2.796871,1.796956 v 3.593944 m -0.0031,0 v -3.593944 l 2.796872,-1.796956 2.796871,1.796956 m -11.181361,3.593944 -2.796871,1.796968 -2.796868,-1.796968 v -3.593944 l 2.796868,-1.796956 2.796871,1.796956 z m 1.152357,0.833096 q 0,0.179432 -0.11711,0.279536 -0.117106,0.100104 -0.315679,0.100104 -0.101837,0 -0.188396,-0.01704 -0.08656,-0.01704 -0.144262,-0.0472 v -0.162432 q 0.0611,0.03024 0.151055,0.05472 0.09165,0.02448 0.188389,0.02448 0.135778,0 0.203669,-0.05856 0.06958,-0.05856 0.06958,-0.158648 0,-0.06608 -0.02546,-0.111432 -0.02546,-0.04536 -0.08826,-0.0831 -0.0611,-0.03968 -0.171418,-0.0831 -0.154447,-0.06232 -0.234216,-0.152992 -0.07807,-0.09065 -0.07807,-0.247416 0,-0.107656 0.04922,-0.183208 0.04922,-0.07744 0.135775,-0.118984 0.08826,-0.04152 0.201971,-0.04152 0.100136,0 0.1833,0.0208 0.08316,0.0208 0.151052,0.05472 l -0.04752,0.145424 q -0.0628,-0.03024 -0.137475,-0.05104 -0.07298,-0.0208 -0.15275,-0.0208 -0.113715,0 -0.171417,0.05472 -0.0577,0.05288 -0.0577,0.141656 0,0.068 0.02546,0.113328 0.02546,0.04536 0.08316,0.08121 0.05771,0.03592 0.156148,0.07744 0.106926,0.04344 0.179905,0.09444 0.07468,0.04912 0.112018,0.118984 0.03903,0.06992 0.03903,0.175648 z m 7.540574,-8.371235 h -0.677196 v -1.348547 h 0.677196 v 0.149209 H 73.47145 v 0.421187 h 0.493892 v 0.147317 H 73.47145 v 0.481619 h 0.524445 z m 0.100228,1.258729 q 0,0.179428 -0.117109,0.279532 -0.117108,0.100103 -0.315684,0.100103 -0.10183,0 -0.188392,-0.01696 -0.08656,-0.01702 -0.144264,-0.0472 v -0.162423 q 0.0611,0.03024 0.151055,0.05476 0.09165,0.02452 0.188392,0.02452 0.135775,0 0.203665,-0.05857 0.06958,-0.05857 0.06958,-0.158649 0,-0.0661 -0.02547,-0.111437 -0.02547,-0.04535 -0.08825,-0.0831 -0.0611,-0.03964 -0.171423,-0.0831 -0.154446,-0.06233 -0.234212,-0.152988 -0.07808,-0.09066 -0.07808,-0.24742 0,-0.107657 0.04922,-0.183208 0.04922,-0.07744 0.135775,-0.11899 0.08826,-0.04154 0.201975,-0.04154 0.100133,0 0.183297,0.02078 0.08316,0.02078 0.151054,0.05476 l -0.0475,0.145429 q -0.0628,-0.03024 -0.137478,-0.05101 -0.07298,-0.02078 -0.15275,-0.02078 -0.11371,0 -0.171417,0.05476 -0.05774,0.05286 -0.05774,0.14165 0,0.068 0.02547,0.113324 0.02547,0.04535 0.08316,0.08122 0.05768,0.03589 0.156149,0.07744 0.106925,0.04345 0.179905,0.09443 0.07467,0.0491 0.11202,0.118991 0.03905,0.06988 0.03905,0.175654 z m -15.237144,6.124714 q 0.225729,0 0.332655,0.09632 0.108622,0.09444 0.108622,0.287088 0,0.107656 -0.03564,0.179424 -0.03564,0.07176 -0.09165,0.115216 -0.05431,0.04152 -0.115413,0.06608 l 0.332659,0.6044 H 59.212 l -0.29362,-0.557176 h -0.241 v 0.557176 h -0.152754 v -1.348552 z m -0.0085,0.14732 h -0.173118 v 0.500512 h 0.181602 q 0.14766,0 0.215548,-0.06424 0.06789,-0.06608 0.06789,-0.192648 0,-0.132216 -0.07128,-0.186984 -0.07128,-0.05664 -0.220637,-0.05664 z m 9.83114,-6.585565 q 0,0.247426 -0.08995,0.421187 -0.08826,0.173763 -0.263069,0.239867 l 0.290225,0.336197 h -0.218943 l -0.234216,-0.304085 q -0.01018,0 -0.02205,0 -0.01018,0.0018 -0.02035,0.0018 -0.188392,0 -0.313985,-0.08688 -0.1239,-0.08688 -0.184998,-0.243647 -0.0611,-0.156762 -0.0611,-0.366409 0,-0.207754 0.0611,-0.362636 0.0611,-0.154875 0.184998,-0.241753 0.125593,-0.08688 0.315679,-0.08688 0.181606,0 0.305502,0.08688 0.123896,0.08499 0.186694,0.241753 0.0645,0.154882 0.0645,0.364523 z m -0.957235,0 q 0,0.254979 0.09674,0.402302 0.09674,0.145429 0.302108,0.145429 0.20706,0 0.302103,-0.145429 0.09505,-0.147323 0.09505,-0.402302 0,-0.254972 -0.09505,-0.398515 -0.09504,-0.145429 -0.300409,-0.145429 -0.205364,0 -0.303802,0.145429 -0.09674,0.143543 -0.09674,0.398515 z M 62.6206,87.744986 q -0.195179,0 -0.307196,0.145429 -0.112018,0.145429 -0.112018,0.398515 0,0.251206 0.103531,0.398522 0.105228,0.145435 0.313985,0.145435 0.07977,0 0.151055,-0.01512 0.07128,-0.01512 0.13917,-0.03779 v 0.147322 q -0.06789,0.02834 -0.140866,0.04154 -0.07129,0.01322 -0.171422,0.01322 -0.184998,0 -0.308894,-0.08499 -0.123899,-0.085 -0.186694,-0.241753 -0.0611,-0.156768 -0.0611,-0.368303 0,-0.20398 0.06619,-0.358862 0.06789,-0.156756 0.198574,-0.24364 0.130685,-0.08877 0.31738,-0.08877 0.191787,0 0.334352,0.07932 l -0.0611,0.143543 q -0.05601,-0.02834 -0.125595,-0.05101 -0.06789,-0.02268 -0.149357,-0.02268 z"
       style="opacity:0.157165;fill:none;stroke:#ffffff;stroke-width:0.2;stroke-miterlimit:4;stroke-dasharray:none;stroke-opacity:1"
       id="path1467" />
    <g
       style="font-style:normal;font-weight:normal;font-size:10.5833px;line-height:1.25;font-family:sans-serif;opacity:0.060632;fill:none;fill-opacity:1;stroke:#ffffff;stroke-width:0.712194;stroke-opacity:1;filter:url(#filter4166)"
       id="g1503"
       transform="matrix(0.16036802,0,0,0.17846223,119.94179,79.059319)"
       aria-label="C" />
    <g
       style="font-style:normal;font-weight:normal;font-size:10.5833px;line-height:1.25;font-family:sans-serif;opacity:0.060632;fill:none;fill-opacity:1;stroke:#ffffff;stroke-width:0.712194;stroke-opacity:1;filter:url(#filter4162)"
       id="g1505"
       transform="matrix(0.16036802,0,0,0.17846223,124.94709,77.458709)"
       aria-label="Q" />
    <g
       style="font-style:normal;font-weight:normal;font-size:10.5833px;line-height:1.25;font-family:sans-serif;opacity:0.060632;fill:none;fill-opacity:1;stroke:#ffffff;stroke-width:0.712194;stroke-opacity:1;filter:url(#filter4154)"
       id="g1507"
       transform="matrix(0.16036802,0,0,0.17846223,114.20578,82.545445)"
       aria-label="R" />
    <g
       style="font-style:normal;font-weight:normal;font-size:10.5833px;line-height:1.25;font-family:sans-serif;opacity:0.060632;fill:none;fill-opacity:1;stroke:#ffffff;stroke-width:0.712194;stroke-opacity:1;filter:url(#filter4158)"
       id="g1509"
       transform="matrix(0.16036802,0,0,0.17846223,126.47665,77.200677)"
       aria-label="S" />
    <g
       style="font-style:normal;font-weight:normal;font-size:10.5833px;line-height:1.25;font-family:sans-serif;opacity:0.060632;fill:none;fill-opacity:1;stroke:#ffffff;stroke-width:0.712194;stroke-opacity:1;filter:url(#filter4150)"
       id="g1511"
       transform="matrix(0.16036802,0,0,0.17846223,126.75317,72.772859)"
       aria-label="E" />
    <g
       style="font-style:normal;font-weight:normal;font-size:10.5833px;line-height:1.25;font-family:sans-serif;opacity:0.060632;fill:none;fill-opacity:1;stroke:#ffffff;stroke-width:0.712194;stroke-opacity:1;filter:url(#filter4158)"
       id="g1513"
       transform="matrix(0.16036802,0,0,0.17846223,118.83581,84.313186)"
       aria-label="S" />
    <g
       style="font-style:normal;font-weight:normal;font-size:10.5833px;line-height:1.25;font-family:sans-serif;opacity:0.060632;fill:none;fill-opacity:1;stroke:#ffffff;stroke-width:0.712194;stroke-opacity:1;filter:url(#filter4166)"
       id="g1535"
       transform="matrix(0.16036802,0,0,0.17846223,91.892679,53.37841)"
       aria-label="C" />
    <g
       style="font-style:normal;font-weight:normal;font-size:10.5833px;line-height:1.25;font-family:sans-serif;opacity:0.060632;fill:none;fill-opacity:1;stroke:#ffffff;stroke-width:0.712194;stroke-opacity:1;filter:url(#filter4162)"
       id="g1537"
       transform="matrix(0.16036802,0,0,0.17846223,96.897983,51.777807)"
       aria-label="Q" />
    <g
       style="font-style:normal;font-weight:normal;font-size:10.5833px;line-height:1.25;font-family:sans-serif;opacity:0.060632;fill:none;fill-opacity:1;stroke:#ffffff;stroke-width:0.712194;stroke-opacity:1;filter:url(#filter4154)"
       id="g1539"
       transform="matrix(0.16036802,0,0,0.17846223,86.156679,56.864539)"
       aria-label="R" />
    <g
       style="font-style:normal;font-weight:normal;font-size:10.5833px;line-height:1.25;font-family:sans-serif;opacity:0.060632;fill:none;fill-opacity:1;stroke:#ffffff;stroke-width:0.712194;stroke-opacity:1;filter:url(#filter4158)"
       id="g1541"
       transform="matrix(0.16036802,0,0,0.17846223,98.427542,51.519769)"
       aria-label="S" />
    <g
       style="font-style:normal;font-weight:normal;font-size:10.5833px;line-height:1.25;font-family:sans-serif;opacity:0.060632;fill:none;fill-opacity:1;stroke:#ffffff;stroke-width:0.712194;stroke-opacity:1;filter:url(#filter4158)"
       id="g1545"
       transform="matrix(0.16036802,0,0,0.17846223,90.786711,58.632285)"
       aria-label="S" />
    <path
       d="m 112.90117,90.093854 2.32684,1.495529 m 0,2.991048 -2.32684,1.49552 m -2.32684,-1.49552 v -2.991048 m 5.12064,3.292488 v -3.593944 l 2.79687,-1.796956 2.79687,1.796956 v 3.593944 m -0.003,0 v -3.593944 l 2.79686,-1.796956 2.79687,1.796956 m -11.18133,3.593944 -2.79686,1.796968 -2.79688,-1.796968 v -3.593944 l 2.79688,-1.796956 2.79686,1.796956 z m 1.15236,0.833096 q 0,0.179432 -0.11711,0.279536 -0.11711,0.100104 -0.31568,0.100104 -0.10184,0 -0.18839,-0.01704 -0.0866,-0.01704 -0.14427,-0.0472 v -0.162432 q 0.0611,0.03024 0.15106,0.05472 0.0916,0.02448 0.18838,0.02448 0.13579,0 0.20367,-0.05856 0.0696,-0.05856 0.0696,-0.158648 0,-0.06608 -0.0254,-0.111432 -0.0254,-0.04536 -0.0883,-0.0831 -0.0611,-0.03968 -0.17143,-0.0831 -0.15444,-0.06232 -0.23421,-0.152992 -0.0781,-0.09065 -0.0781,-0.247416 0,-0.107656 0.0492,-0.183208 0.0492,-0.07744 0.13577,-0.118984 0.0883,-0.04152 0.20197,-0.04152 0.10014,0 0.18331,0.0208 0.0832,0.0208 0.15105,0.05472 l -0.0475,0.145424 q -0.0628,-0.03024 -0.13747,-0.05104 -0.073,-0.0208 -0.15275,-0.0208 -0.11372,0 -0.17142,0.05472 -0.0577,0.05288 -0.0577,0.141656 0,0.068 0.0254,0.113328 0.0254,0.04536 0.0831,0.08121 0.0578,0.03592 0.15616,0.07744 0.10692,0.04344 0.1799,0.09444 0.0746,0.04912 0.11202,0.118984 0.039,0.06992 0.039,0.175648 z m 7.5406,-8.371235 h -0.67719 v -1.348547 h 0.67719 v 0.149209 h -0.52445 v 0.421187 h 0.4939 v 0.147317 h -0.4939 v 0.481619 h 0.52445 z m 0.10024,1.258729 q 0,0.179428 -0.11712,0.279532 -0.11711,0.100103 -0.31568,0.100103 -0.10183,0 -0.18839,-0.01696 -0.0866,-0.01702 -0.14427,-0.0472 v -0.162423 q 0.0611,0.03024 0.15105,0.05476 0.0917,0.02452 0.18839,0.02452 0.13579,0 0.20367,-0.05857 0.0696,-0.05857 0.0696,-0.158649 0,-0.0661 -0.0254,-0.111437 -0.0254,-0.04535 -0.0883,-0.0831 -0.0611,-0.03964 -0.17142,-0.0831 -0.15445,-0.06233 -0.23421,-0.152988 -0.0781,-0.09066 -0.0781,-0.24742 0,-0.107657 0.0492,-0.183208 0.0492,-0.07744 0.13577,-0.11899 0.0883,-0.04154 0.20197,-0.04154 0.10014,0 0.1833,0.02078 0.0832,0.02078 0.15106,0.05476 l -0.0475,0.145429 q -0.0628,-0.03024 -0.13748,-0.05101 -0.073,-0.02078 -0.15275,-0.02078 -0.11371,0 -0.17142,0.05476 -0.0578,0.05286 -0.0578,0.14165 0,0.068 0.0254,0.113324 0.0254,0.04535 0.0832,0.08122 0.0577,0.03589 0.15615,0.07744 0.10692,0.04345 0.17991,0.09443 0.0746,0.0491 0.11201,0.118991 0.039,0.06988 0.039,0.175654 z m -15.23714,6.124714 q 0.22574,0 0.33266,0.09632 0.10862,0.09444 0.10862,0.287088 0,0.107656 -0.0357,0.179424 -0.0357,0.07176 -0.0916,0.115216 -0.0543,0.04152 -0.11542,0.06608 l 0.33266,0.6044 h -0.17821 l -0.29362,-0.557176 h -0.241 v 0.557176 h -0.15276 v -1.348552 z m -0.008,0.14732 h -0.17312 v 0.500512 h 0.18161 q 0.14766,0 0.21555,-0.06424 0.0678,-0.06608 0.0678,-0.192648 0,-0.132216 -0.0713,-0.186984 -0.0713,-0.05664 -0.22064,-0.05664 z m 9.83115,-6.585565 q 0,0.247426 -0.09,0.421187 -0.0883,0.173763 -0.26307,0.239867 l 0.29023,0.336197 h -0.21895 l -0.23421,-0.304085 q -0.0102,0 -0.022,0 -0.0102,0.0018 -0.0204,0.0018 -0.1884,0 -0.31399,-0.08688 -0.1239,-0.08688 -0.18499,-0.243647 -0.0611,-0.156762 -0.0611,-0.366409 0,-0.207754 0.0611,-0.362636 0.0611,-0.154875 0.18499,-0.241753 0.12559,-0.08688 0.31568,-0.08688 0.18161,0 0.30551,0.08688 0.12389,0.08499 0.18668,0.241753 0.0645,0.154882 0.0645,0.364523 z m -0.95724,0 q 0,0.254979 0.0967,0.402302 0.0967,0.145429 0.3021,0.145429 0.20707,0 0.30211,-0.145429 0.0951,-0.147323 0.0951,-0.402302 0,-0.254972 -0.0951,-0.398515 -0.095,-0.145429 -0.30041,-0.145429 -0.20536,0 -0.3038,0.145429 -0.0967,0.143543 -0.0967,0.398515 z m -5.10379,-0.543944 q -0.19518,0 -0.3072,0.145429 -0.11202,0.145429 -0.11202,0.398515 0,0.251206 0.10353,0.398522 0.10523,0.145435 0.31399,0.145435 0.0798,0 0.15106,-0.01512 0.0713,-0.01512 0.13916,-0.03779 v 0.147322 q -0.0679,0.02834 -0.14086,0.04154 -0.0713,0.01322 -0.17142,0.01322 -0.185,0 -0.3089,-0.08499 -0.1239,-0.085 -0.1867,-0.241753 -0.0611,-0.156768 -0.0611,-0.368303 0,-0.20398 0.0662,-0.358862 0.0679,-0.156756 0.19857,-0.24364 0.13069,-0.08877 0.31739,-0.08877 0.19178,0 0.33435,0.07932 l -0.0611,0.143543 q -0.056,-0.02834 -0.12559,-0.05101 -0.0679,-0.02268 -0.14936,-0.02268 z"
       style="opacity:0.157165;fill:none;stroke:#ffffff;stroke-width:0.2;stroke-miterlimit:4;stroke-dasharray:none;stroke-opacity:1"
       id="path1547" />
    <g
       aria-label="C"
       transform="matrix(0.16036802,0,0,0.17846223,117.0902,53.37841)"
       id="g1551"
       style="font-style:normal;font-weight:normal;font-size:10.5833px;line-height:1.25;font-family:sans-serif;opacity:0.060632;fill:none;fill-opacity:1;stroke:#ffffff;stroke-width:0.712194;stroke-opacity:1;filter:url(#filter4166)" />
    <g
       aria-label="Q"
       transform="matrix(0.16036802,0,0,0.17846223,122.0955,51.777807)"
       id="g1553"
       style="font-style:normal;font-weight:normal;font-size:10.5833px;line-height:1.25;font-family:sans-serif;opacity:0.060632;fill:none;fill-opacity:1;stroke:#ffffff;stroke-width:0.712194;stroke-opacity:1;filter:url(#filter4162)" />
    <g
       aria-label="R"
       transform="matrix(0.16036802,0,0,0.17846223,111.35419,56.864539)"
       id="g1555"
       style="font-style:normal;font-weight:normal;font-size:10.5833px;line-height:1.25;font-family:sans-serif;opacity:0.060632;fill:none;fill-opacity:1;stroke:#ffffff;stroke-width:0.712194;stroke-opacity:1;filter:url(#filter4154)" />
    <g
       aria-label="S"
       transform="matrix(0.16036802,0,0,0.17846223,123.62505,51.519769)"
       id="g1557"
       style="font-style:normal;font-weight:normal;font-size:10.5833px;line-height:1.25;font-family:sans-serif;opacity:0.060632;fill:none;fill-opacity:1;stroke:#ffffff;stroke-width:0.712194;stroke-opacity:1;filter:url(#filter4158)" />
    <g
       aria-label="S"
       transform="matrix(0.16036802,0,0,0.17846223,115.98422,58.632285)"
       id="g1561"
       style="font-style:normal;font-weight:normal;font-size:10.5833px;line-height:1.25;font-family:sans-serif;opacity:0.060632;fill:none;fill-opacity:1;stroke:#ffffff;stroke-width:0.712194;stroke-opacity:1;filter:url(#filter4158)" />
    <path
       transform="scale(0.26458333)"
       d="M 522.38672 211.64648 C 521.85641 211.64648 521.37504 211.78206 520.97656 212.05273 C 520.5875 212.31281 520.28712 212.67994 520.0918 213.13086 L 520.0918 213.13672 C 519.90142 213.5821 519.81055 214.08772 519.81055 214.64258 C 519.81055 215.21198 519.89352 215.72329 520.06836 216.17188 C 520.24974 216.62464 520.53315 216.99725 520.91016 217.25586 C 521.29469 217.51964 521.76702 217.64844 522.29102 217.64844 C 522.55993 217.64843 522.79695 217.62698 523.00781 217.58789 C 523.21807 217.54985 523.42287 217.49402 523.61914 217.41211 L 523.84766 217.30859 L 523.84766 215.97852 L 523.35352 216.14258 C 523.19633 216.19509 523.03315 216.2402 522.86719 216.27539 C 522.71563 216.30754 522.55609 216.32617 522.37891 216.32617 C 521.94373 216.32617 521.69686 216.20189 521.50195 215.93555 C 521.29918 215.64703 521.17578 215.23141 521.17578 214.65039 C 521.17578 214.06845 521.30585 213.65553 521.52344 213.37305 C 521.74091 213.09068 521.981 212.9668 522.37891 212.9668 C 522.54914 212.9668 522.70195 212.99052 522.83008 213.0332 C 522.98973 213.08521 523.12894 213.14187 523.25 213.20312 L 523.61133 213.38867 L 524.13672 212.16211 L 523.83398 211.99219 C 523.41181 211.75729 522.92209 211.64648 522.38672 211.64648 z M 521.44141 212.66406 C 521.42822 212.6727 521.41144 212.67069 521.39844 212.67969 L 521.4043 212.67188 C 521.4139 212.66535 521.43166 212.67036 521.44141 212.66406 z M 521.28711 216.57031 C 521.36493 216.63103 521.46486 216.64898 521.55273 216.69531 C 521.49154 216.66594 521.39198 216.67381 521.33789 216.63672 C 521.31567 216.62149 521.30831 216.58664 521.28711 216.57031 z M 521.94336 218.74023 L 510.99609 225.77539 L 510.99609 239.77148 L 521.94336 246.80664 L 532.89844 239.77148 L 532.89844 239.56445 L 532.89844 226.18164 L 540 221.61914 L 540 220.71875 L 532.51562 225.53125 L 521.94336 218.74023 z M 521.94336 219.64062 L 532.13086 226.18164 L 532.13086 239.36523 L 521.94336 245.90625 L 511.75781 239.35742 L 511.75781 226.18945 L 521.94336 219.64062 z M 522.15039 221.1543 L 521.74414 221.78906 L 530.53711 227.43555 L 530.94336 226.80078 L 522.15039 221.1543 z M 512.77539 227.11914 L 512.77539 238.42773 L 513.5293 238.42773 L 513.5293 227.11914 L 512.77539 227.11914 z M 530.53711 238.10938 L 521.74414 243.75781 L 522.15039 244.40039 L 530.94336 238.74414 L 530.53711 238.10938 z M 535.50391 238.53125 C 535.17146 238.53125 534.85326 238.5914 534.57422 238.72266 C 534.3019 238.85336 534.07128 239.05682 533.91016 239.30664 C 533.7414 239.5658 533.6582 239.87819 533.6582 240.20703 C 533.6582 240.66478 533.78368 241.07862 534.05078 241.38867 L 534.05078 241.39453 C 534.30333 241.68153 534.64897 241.90182 535.07617 242.07422 L 535.08398 242.07422 C 535.34764 242.17808 535.54046 242.2778 535.66016 242.35547 L 535.66602 242.35547 L 535.67383 242.36133 C 535.79428 242.4336 535.85222 242.49401 535.87305 242.53125 C 535.89879 242.57714 535.91797 242.64944 535.91797 242.76758 C 535.91797 242.93213 535.88719 242.99883 535.79297 243.07812 L 535.78516 243.08594 C 535.70847 243.15208 535.54953 243.21094 535.26172 243.21094 C 535.0498 243.21094 534.84713 243.1899 534.64844 243.13672 C 534.43886 243.07959 534.27076 243.01463 534.14648 242.95312 L 533.59961 242.6875 L 533.59961 244.13477 L 533.80664 244.24414 C 533.99494 244.34269 534.21295 244.41101 534.45703 244.45898 C 534.70266 244.50728 534.96064 244.52539 535.23828 244.52539 C 535.80215 244.52539 536.30247 244.38133 536.67773 244.06055 C 537.05761 243.73586 537.25391 243.25113 537.25391 242.7168 L 537.25391 242.50977 L 537.19531 242.47266 C 537.17041 242.26078 537.15288 242.04315 537.05469 241.86719 C 536.93011 241.63844 536.74111 241.44124 536.51562 241.29102 C 536.30367 241.14295 536.0561 241.00947 535.76953 240.89258 C 535.5332 240.79274 535.35002 240.70118 535.23047 240.62695 C 535.1246 240.56115 535.07201 240.50191 535.04688 240.45703 C 535.02227 240.41312 535.00195 240.33909 535.00195 240.21484 C 535.00195 240.07314 535.02989 240.01726 535.09766 239.95508 C 535.15314 239.90245 535.26437 239.85156 535.49023 239.85156 C 535.65835 239.85156 535.81383 239.86967 535.96289 239.91211 L 535.96289 239.91797 C 536.13176 239.96494 536.28397 240.01657 536.41992 240.08203 L 536.81055 240.27344 L 537.22461 239.00391 L 536.93555 238.85547 C 536.73686 238.75597 536.52031 238.67738 536.28711 238.61914 C 536.04291 238.55813 535.78234 238.53125 535.50391 238.53125 z M 506.52344 238.60547 L 506.52344 244.45898 L 507.85156 244.45898 L 507.85156 242.34766 L 508.16211 242.34766 L 509.26953 244.45898 L 510.8125 244.45898 L 509.42383 241.93359 C 509.47436 241.90086 509.53181 241.88263 509.58008 241.8457 L 509.58008 241.83789 C 509.76977 241.69047 509.92565 241.50139 510.03711 241.27734 C 510.16062 241.02903 510.20703 240.74077 510.20703 240.42773 C 510.20703 239.87128 510.03768 239.38395 509.66797 239.0625 C 509.30056 238.73454 508.78188 238.60547 508.16211 238.60547 L 506.52344 238.60547 z M 507.85938 239.91797 L 508.13281 239.91797 C 508.14056 239.91797 508.13885 239.91789 508.14648 239.91797 C 508.46087 239.92112 508.65333 239.98361 508.73047 240.04492 L 508.73047 240.05078 L 508.73828 240.05078 C 508.8014 240.09929 508.85547 240.19185 508.85547 240.45703 C 508.85547 240.70839 508.79935 240.83362 508.71484 240.91602 C 508.64171 240.98306 508.47543 241.04883 508.16211 241.04883 L 507.85938 241.04883 L 507.85938 239.91797 z "
       style="color:#000000;font-style:normal;font-variant:normal;font-weight:normal;font-stretch:normal;font-size:medium;line-height:normal;font-family:sans-serif;font-variant-ligatures:normal;font-variant-position:normal;font-variant-caps:normal;font-variant-numeric:normal;font-variant-alternates:normal;font-variant-east-asian:normal;font-feature-settings:normal;font-variation-settings:normal;text-indent:0;text-align:start;text-decoration:none;text-decoration-line:none;text-decoration-style:solid;text-decoration-color:#000000;letter-spacing:normal;word-spacing:normal;text-transform:none;writing-mode:lr-tb;direction:ltr;text-orientation:mixed;dominant-baseline:auto;baseline-shift:baseline;text-anchor:start;white-space:normal;shape-padding:0;shape-margin:0;inline-size:0;clip-rule:nonzero;display:inline;overflow:visible;visibility:visible;opacity:0.157165;isolation:auto;mix-blend-mode:normal;color-interpolation:sRGB;color-interpolation-filters:linearRGB;solid-color:#000000;solid-opacity:1;vector-effect:none;fill:#ffffff;fill-opacity:1;fill-rule:nonzero;stroke:none;stroke-width:0.755906;stroke-linecap:butt;stroke-linejoin:miter;stroke-miterlimit:4;stroke-dasharray:none;stroke-dashoffset:0;stroke-opacity:1;color-rendering:auto;image-rendering:auto;shape-rendering:auto;text-rendering:auto;enable-background:accumulate;stop-color:#000000;stop-opacity:1"
       id="path442" />
  </g>
</svg>
